<?xml version="1.0" encoding="utf-8"?>
<!-- Generator: Adobe Illustrator 16.0.0, SVG Export Plug-In . SVG Version: 6.00 Build 0)  -->
<!DOCTYPE svg PUBLIC "-//W3C//DTD SVG 1.1//EN" "http://www.w3.org/Graphics/SVG/1.1/DTD/svg11.dtd">
<svg version="1.1" id="Layer_1" xmlns="http://www.w3.org/2000/svg" xmlns:xlink="http://www.w3.org/1999/xlink" x="0px" y="0px"
	 width="294.349px" height="301.784px" viewBox="0 0 294.349 301.784" enable-background="new 0 0 294.349 301.784"
	 xml:space="preserve">
<g>
	<defs>
		<rect id="SVGID_1_" width="294.349" height="301.784"/>
	</defs>
	<clipPath id="SVGID_2_">
		<use xlink:href="#SVGID_1_"  overflow="visible"/>
	</clipPath>
	<g clip-path="url(#SVGID_2_)">
		<defs>
			<rect id="SVGID_3_" width="294.349" height="301.784"/>
		</defs>
		<clipPath id="SVGID_4_">
			<use xlink:href="#SVGID_3_"  overflow="visible"/>
		</clipPath>
		<path clip-path="url(#SVGID_4_)" fill="#006298" d="M177.797,173.963c2.559,3.461,5.138,6.514,7.899,9.604
			c2.774,3.032,5.619,6.023,8.677,8.844c3.031,2.848,6.208,5.604,9.626,8.172c3.425,2.566,7.004,5.062,11.044,7.193
			c4.021,2.144,8.436,4.048,13.739,5.046c2.648,0.47,5.541,0.682,8.613,0.347c3.058-0.312,6.293-1.288,9.145-2.9
			c2.862-1.599,5.28-3.752,7.151-6.022c1.889-2.286,3.224-4.672,4.312-7.006c2.166-4.698,3.249-9.215,3.982-13.624
			c0.194-1.109,0.325-2.196,0.455-3.282l0.101-0.817l0.05-0.407l0.026-0.25l0.004-0.046l0.007-0.092l0.012-0.185l0.09-1.475
			c0.144-2.631,0.077-5.01-0.222-7.461c-0.28-2.444-0.811-4.894-1.555-7.271c-0.768-2.374-1.765-4.664-2.95-6.807
			c-2.374-4.309-5.523-7.928-8.846-10.949c-3.341-3.027-6.885-5.489-10.408-7.715c-3.533-2.211-7.087-4.149-10.555-6.037
			c-3.464-1.882-6.848-3.738-9.942-5.759c-3.072-2.024-5.897-4.256-7.596-6.907c-0.854-1.323-1.384-2.747-1.587-4.297
			c-0.176-1.553,0.006-3.225,0.45-4.925l-0.229,0.46c0.215-0.378,0.372-0.689,0.549-1.03l0.491-1.014
			c0.321-0.675,0.598-1.376,0.854-2.086c0.504-1.424,0.956-2.897,1.086-4.524c0.062-0.808,0.067-1.655-0.124-2.544
			c-0.195-0.874-0.657-1.822-1.419-2.449c-0.754-0.631-1.646-0.884-2.442-0.94c-0.804-0.059-1.558,0.025-2.276,0.192l0.048,0.836
			c0.681,0.097,1.347,0.212,1.92,0.439c0.575,0.227,1.03,0.55,1.265,0.931c0.458,0.725,0.318,1.822-0.043,2.975
			c-0.388,1.144-0.939,2.32-1.594,3.453c-0.326,0.568-0.679,1.127-1.028,1.687l-0.54,0.825c-0.181,0.263-0.383,0.555-0.549,0.77
			l-0.056,0.074l-0.174,0.384c-0.898,2-1.503,4.253-1.602,6.643c-0.067,2.389,0.45,4.854,1.433,7.019
			c1.988,4.371,5.184,7.547,8.285,10.339c3.146,2.793,6.403,5.189,9.538,7.599c3.144,2.393,6.203,4.742,9.027,7.185
			c2.824,2.431,5.384,4.994,7.474,7.679c2.104,2.679,3.68,5.483,4.688,8.3c0.506,1.41,0.864,2.835,1.083,4.275
			c0.241,1.435,0.361,2.886,0.326,4.374c-0.034,1.479-0.174,3.047-0.358,4.34l-0.23,1.462l-0.218,1.128
			c-0.157,0.86-0.311,1.721-0.514,2.542c-0.756,3.31-1.681,6.49-2.966,8.886c-0.622,1.204-1.297,2.25-1.972,2.96
			c-0.664,0.739-1.273,1.204-1.863,1.508c-0.593,0.3-1.204,0.484-2.063,0.573c-0.848,0.084-1.922,0.033-3.146-0.196
			c-2.464-0.41-5.411-1.563-8.365-3.045c-2.953-1.501-5.986-3.326-8.951-5.36c-2.951-2.062-5.913-4.256-8.818-6.582
			c-2.889-2.346-5.792-4.747-8.611-7.261c-2.822-2.463-5.693-5.103-8.331-7.559L177.797,173.963z"/>
		<path clip-path="url(#SVGID_4_)" fill="#5E93CA" d="M291.694,179.064c-1.731-0.616-4.277-1.479-7.605-2.411
			c-3.313-0.931-7.4-1.954-12.252-2.563c-3.226-0.37-6.858-0.562-10.74-0.237c-3.101-5.005-6.069-9.863-8.598-14.658
			c-3.28-6.192-5.86-12.377-6.577-18.201c-0.768-5.812,0.828-11.088,4.245-15.119c3.392-4.071,7.962-6.833,12.112-8.916
			c4.195-2.053,8.137-3.405,11.396-4.439c3.273-1.028,5.885-1.715,7.677-2.15c1.792-0.419,2.741-0.67,2.741-0.67
			s-0.961,0.092-2.819,0.258c-1.838,0.169-4.538,0.448-7.961,1.007c-3.434,0.532-7.612,1.302-12.316,2.8
			c-4.66,1.556-10.033,3.675-14.998,8.013c-2.45,2.19-4.698,5.027-6.251,8.422c-1.596,3.364-2.335,7.233-2.47,11.067
			c-0.209,7.755,1.836,15.342,4.378,22.616c1.688,4.788,3.644,9.512,5.641,14.187c-0.512,0.319-1.041,0.621-1.542,0.959
			c-2.957,2.073-5.634,4.818-7.812,7.953c-4.309,6.343-6.658,13.868-8.242,21.406c-0.209,0.938-0.355,1.898-0.54,2.859
			c-4.809-3.245-9.278-6.863-13.271-10.425c-7.997-7.138-14.207-13.947-18.438-18.79c-6.938-11.541-4.658-24.293-4.373-25.771
			c5.932-21.627,18.539-57.853,9.227-87.156c-10.966-34.546-44.028-56.981-93.32-45.94c-49.283,11.042-69.621,45.436-64.801,81.362
			c3.773,28.139,26.961,53.625,41.978,70.788c0.383,0.455,11.664,14.388,6.134,26.269c-3.079,4.496-6.916,9.751-11.512,15.257
			c-3.446,4.12-7.334,8.346-11.619,12.246c-0.32-0.92-0.611-1.851-0.941-2.758c-2.679-7.205-6.107-14.319-11.288-19.955
			c-2.589-2.807-5.646-5.127-8.88-6.728c-0.554-0.286-1.112-0.488-1.659-0.729c1.302-4.936,2.543-9.877,3.527-14.859
			c1.43-7.589,2.358-15.395,1.028-23.017c-0.703-3.787-1.978-7.499-4.054-10.602c-2.032-3.136-4.665-5.611-7.41-7.406
			c-5.547-3.583-11.165-4.9-16.001-5.758c-4.872-0.784-9.115-0.946-12.585-0.984c-3.475-0.049-6.188,0.064-8.032,0.177
			c-1.852,0.099-2.829,0.16-2.829,0.16s0.977,0.092,2.806,0.254c1.85,0.158,4.545,0.459,7.926,1.001
			c3.36,0.548,7.457,1.317,11.917,2.745c4.404,1.452,9.325,3.517,13.269,7.045c3.982,3.499,6.31,8.496,6.398,14.358
			c0.138,5.854-1.514,12.348-3.855,18.96c-1.797,5.111-4.038,10.342-6.367,15.768c-3.899,0.21-7.449,0.949-10.58,1.77
			c-4.726,1.328-8.629,2.935-11.765,4.322c-3.149,1.405-5.558,2.627-7.176,3.496c-1.63,0.854-2.486,1.319-2.486,1.319
			s0.92-0.332,2.648-0.942c1.73-0.619,4.266-1.478,7.538-2.393c3.272-0.913,7.282-1.904,11.903-2.485
			c2.449-0.279,5.128-0.454,7.858-0.354c-0.023,0.053-0.036,0.099-0.064,0.155c-3.055,7.231-6.362,14.651-8.387,23.631
			c-0.949,4.507-1.653,9.57-0.582,15.495c0.525,2.921,1.663,6.088,3.445,8.936c0.93,1.455,1.758,2.646,3.243,4.162l1.048,1.047
			l0.611,0.565l0.534,0.512l0.274,0.245l0.867,0.657c4.408,3.397,10.152,5.83,15.896,6.542c5.326,0.687,10.339,0.072,14.814-1.049
			c0.668,4.298,1.508,8.697,2.805,13.283c1.286,4.271,2.996,8.811,6.078,13.317c3.183,4.515,7.735,8.812,14.335,11.001l1.868,0.575
			l0.687,0.209l0.185,0.06c0.263,0.047-0.471-0.076,0.606,0.125l0.117,0.033l0.508,0.082c1.302,0.271,2.653,0.452,4.027,0.588
			c2.752,0.227,5.616,0.144,8.45-0.316c5.723-0.878,11.042-3.434,15.255-6.49c8.422-6.274,13.201-13.836,16.979-20.676
			c3.714-6.925,6.258-13.548,8.307-19.659c4.034-12.218,6.099-22.434,7.408-29.647c0.238-1.353,0.439-2.576,0.624-3.693
			c2.339,6.717,5.671,15.6,10.807,25.812c2.898,5.753,6.403,11.931,11.067,18.262c4.755,6.219,10.563,13.004,19.821,17.975
			c4.618,2.421,10.235,4.154,16.033,4.212c2.867,0.036,5.723-0.312,8.398-0.928c1.345-0.334,2.661-0.723,3.911-1.167l0.471-0.156
			l0.123-0.041c1.03-0.373,0.321-0.123,0.588-0.221l0.163-0.071l0.647-0.312l1.779-0.863c6.211-3.105,10.082-8.021,12.586-12.944
			c2.392-4.926,3.403-9.639,4.054-14.062c0.613-4.721,0.821-9.211,0.855-13.546c4.589,0.449,9.646,0.334,14.805-1.128
			c5.575-1.542,10.92-4.779,14.781-8.788l0.775-0.77l0.214-0.285l0.463-0.563l0.524-0.659l0.887-1.193
			c1.248-1.705,1.886-3.024,2.604-4.604c1.346-3.062,1.996-6.362,2.103-9.329c0.187-6.013-1.231-10.926-2.837-15.245
			c-3.305-8.588-7.66-15.461-11.728-22.171c-0.028-0.046-0.046-0.098-0.098-0.139c2.707-0.485,5.366-0.715,7.851-0.8
			c4.645-0.092,8.755,0.304,12.12,0.747c3.375,0.431,6.017,0.903,7.805,1.257c1.797,0.345,2.763,0.547,2.763,0.547
			S293.419,179.682,291.694,179.064 M49.12,240.1c-1.83,0.008-3.504-0.316-5.419-1.364l-0.082-0.041l-0.059-0.028
			c-0.109-0.074,0.844,0.651,0.41,0.314l-0.298-0.198l-0.607-0.425l-0.506-0.338c0,0,0.007,0,0.007,0.025
			c0.077,0.177-0.315-0.151-0.488-0.299c-0.437-0.366-0.851-0.872-1.202-1.746c-0.72-1.733-1.023-4.684-0.804-7.921
			c0.423-6.572,2.338-14.079,4.28-21.474c0.07-0.259,0.152-0.533,0.21-0.801c2.204,1.56,4.174,3.533,5.792,5.93
			c3.27,4.838,5.32,11.09,6.74,17.857c0.507,2.409,0.924,4.908,1.317,7.451c-1.038,0.583-2.086,1.104-3.105,1.549
			C53.031,239.535,50.937,240.041,49.12,240.1 M109.271,262.611c-1.988,5.172-4.716,10.094-7.76,13.038
			c-1.52,1.439-2.987,2.449-4.687,2.996c-0.842,0.288-1.78,0.469-2.823,0.542c-0.525,0.036-1.088,0.054-1.66,0
			c0.672,0.223-2.03-0.254-1.629-0.172c-0.016,0.062-0.376-0.02-0.767-0.106c-0.353-0.128-0.721-0.22-1.089-0.431
			c-0.739-0.35-1.543-0.93-2.364-1.752c-1.641-1.677-3.287-4.284-4.688-7.315c-1.835-4.001-3.338-8.562-4.723-13.271
			c3.167-1.782,6.06-3.679,8.783-5.577c6.28-4.464,11.565-9.08,16.212-13.468c5.958-5.68,10.877-10.966,14.871-15.542
			c-0.386,6.288-1.148,15.176-3.179,25.214C112.709,251.955,111.283,257.42,109.271,262.611 M218.957,260.912
			c-0.715,0.915-1.423,1.602-2.096,2.062c-0.338,0.254-0.69,0.402-1.002,0.574c-0.391,0.153-0.736,0.288-0.749,0.222
			c0.384-0.139-2.224,0.739-1.583,0.419c-0.584,0.123-1.118,0.192-1.653,0.238c-1.047,0.082-1.991,0.035-2.875-0.12
			c-1.754-0.31-3.366-1.089-5.071-2.295c-3.436-2.473-6.851-6.943-9.577-11.751c-2.744-4.854-4.957-10.076-6.749-15.021
			c-3.469-9.662-5.519-18.33-6.811-24.5c4.621,3.946,10.231,8.474,16.974,13.201c5.226,3.679,11.14,7.475,17.983,10.989
			c2.971,1.467,6.124,2.922,9.511,4.225c-0.686,4.88-1.507,9.605-2.739,13.818C221.568,256.162,220.337,259.01,218.957,260.912
			 M258.146,213.957c-0.217,0.939-0.564,1.484-0.936,1.917c-0.147,0.15-0.476,0.558-0.446,0.357c0-0.01,0.014-0.021,0.014-0.021
			l-0.448,0.424l-0.535,0.484l-0.275,0.25c-0.384,0.396,0.465-0.46,0.363-0.367l-0.041,0.022l-0.082,0.054
			c-1.746,1.339-3.357,1.892-5.164,2.135c-1.797,0.216-3.964,0.014-6.355-0.594c-1.06-0.261-2.166-0.651-3.275-1.07
			c0.015-2.572,0.057-5.098,0.215-7.562c0.401-6.906,1.53-13.392,4.066-18.654c1.253-2.594,2.908-4.841,4.861-6.692
			c0.101,0.249,0.226,0.488,0.32,0.745c2.993,7.031,5.996,14.173,7.356,20.64C258.49,209.189,258.611,212.135,258.146,213.957"/>
		<path clip-path="url(#SVGID_4_)" fill="#006298" d="M82.482,92.353c0,7.45-6.07,13.501-13.544,13.501
			c-7.503,0-13.578-6.051-13.578-13.501c0-7.466,6.075-13.52,13.578-13.52C76.412,78.833,82.482,84.887,82.482,92.353"/>
		<path clip-path="url(#SVGID_4_)" fill="#006298" d="M83.564,67.86c0,3.816-3.113,6.897-6.914,6.897
			c-3.824,0-6.921-3.081-6.921-6.897c0-3.798,3.097-6.894,6.921-6.894C80.452,60.966,83.564,64.062,83.564,67.86"/>
		<path clip-path="url(#SVGID_4_)" fill="#006298" d="M65.65,71.396c0,1.871-1.526,3.389-3.394,3.389
			c-1.874,0-3.392-1.518-3.392-3.389c0-1.864,1.518-3.382,3.392-3.382C64.124,68.014,65.65,69.532,65.65,71.396"/>
		<g opacity="0.1" clip-path="url(#SVGID_4_)">
			<g>
				<defs>
					<rect id="SVGID_5_" y="25.846" width="123.456" height="264.61"/>
				</defs>
				<clipPath id="SVGID_6_">
					<use xlink:href="#SVGID_5_"  overflow="visible"/>
				</clipPath>
				<path clip-path="url(#SVGID_6_)" fill="#00322E" d="M121.957,194.457C38.839,131.402,46.766,55.638,98.105,25.846
					C56.734,39.235,39.708,71.035,44.143,104.2c3.771,28.132,26.961,53.623,41.979,70.79c0.388,0.453,11.663,14.383,6.132,26.267
					c-3.085,4.5-6.907,9.739-11.512,15.263c-3.446,4.114-7.334,8.341-11.613,12.234c-0.325-0.92-0.614-1.857-0.948-2.753
					c-2.671-7.212-6.105-14.318-11.286-19.965c-2.589-2.806-5.645-5.115-8.881-6.73c-0.553-0.271-1.112-0.498-1.665-0.72
					c1.304-4.929,2.549-9.872,3.528-14.861c1.431-7.584,2.362-15.384,1.035-23.015c-0.705-3.783-1.979-7.492-4.051-10.597
					c-2.038-3.135-4.668-5.617-7.415-7.414c-5.547-3.576-11.163-4.909-16.001-5.766c-4.872-0.785-9.108-0.943-12.584-0.974
					c-3.476-0.036-6.188,0.075-8.033,0.189C0.984,136.238,0,136.296,0,136.296s0.984,0.088,2.812,0.258
					c1.843,0.165,4.539,0.451,7.921,1.001c3.353,0.533,7.456,1.315,11.916,2.742c4.41,1.449,9.323,3.527,13.276,7.052
					c3.98,3.491,6.302,8.476,6.396,14.34c0.14,5.86-1.518,12.346-3.859,18.97c-1.8,5.11-4.039,10.348-6.368,15.762
					c-3.9,0.228-7.456,0.953-10.587,1.788c-4.726,1.31-8.616,2.92-11.758,4.321c-3.154,1.399-5.557,2.608-7.177,3.483
					c-1.624,0.855-2.485,1.32-2.485,1.32s0.92-0.326,2.655-0.95c1.723-0.608,4.259-1.467,7.531-2.387
					c3.272-0.907,7.282-1.897,11.898-2.49c2.455-0.266,5.131-0.441,7.863-0.343c-0.023,0.028-0.036,0.105-0.066,0.159
					c-3.053,7.226-6.362,14.643-8.39,23.63c-0.945,4.505-1.648,9.568-0.578,15.495c0.524,2.928,1.667,6.087,3.446,8.927
					c0.925,1.446,1.753,2.655,3.242,4.166l1.048,1.051l0.618,0.569l0.531,0.496l0.272,0.25l0.866,0.657
					c4.407,3.409,10.145,5.825,15.897,6.544c5.332,0.69,10.342,0.058,14.812-1.051c0.636,4.082,2.407,12.004,3.35,15.222
					l9.964,7.215C136.494,318.716,121.957,194.457,121.957,194.457 M85.825,250.238c6.278-4.47,11.569-9.092,16.215-13.481
					c5.954-5.668,10.872-10.967,14.865-15.529c-0.384,6.28-1.153,15.17-3.178,25.21c-1.06,5.191-2.485,10.651-4.498,15.854
					c-1.987,5.163-4.714,10.077-7.76,13.033c-1.524,1.436-2.979,2.446-4.689,2.987c-0.84,0.294-1.778,0.482-2.821,0.545
					c-0.522,0.035-1.082,0.048-1.664,0c0.677,0.222-2.025-0.251-1.623-0.166c-0.016,0.062-0.377-0.021-0.773-0.107
					c-0.35-0.139-0.717-0.233-1.089-0.435c-0.728-0.361-1.531-0.926-2.359-1.754c-1.64-1.672-3.292-4.284-4.69-7.309
					c-1.833-4.01-3.33-8.57-4.726-13.272C80.207,254.032,83.1,252.124,85.825,250.238 M55.265,238.258
					c-2.27,0.934-4.376,1.455-6.191,1.503c-1.823,0.018-3.499-0.302-5.408-1.357l-0.088-0.045l-0.051-0.029
					c-0.117-0.071,0.836,0.652,0.401,0.325l-0.296-0.207l-0.608-0.414l-0.506-0.356c0,0,0.007,0.012,0.007,0.041
					c0.075,0.188-0.316-0.17-0.49-0.298c-0.433-0.36-0.849-0.884-1.197-1.769c-0.73-1.724-1.027-4.655-0.81-7.904
					c0.419-6.577,2.339-14.084,4.284-21.473c0.069-0.273,0.151-0.547,0.21-0.785c2.211,1.549,4.173,3.522,5.797,5.915
					c3.266,4.841,5.321,11.069,6.735,17.869c0.506,2.4,0.923,4.9,1.309,7.433C57.333,237.292,56.279,237.828,55.265,238.258"/>
			</g>
		</g>
		<path clip-path="url(#SVGID_4_)" fill="#5E93CA" d="M136.612,20.583c0,0,23.848-2.558,28.566-20.582
			c0,0,4.702,16.38-11.219,22.962c0,0,17.445-7.096,24.596-2.567c0,0-11.362,2.239-11.825,7.911c0,0,6.11,1.12,7.31-0.764
			l1.199-1.881c0,0,0.281,8.246-4.637,8.839"/>
		<path clip-path="url(#SVGID_4_)" fill="#006298" d="M183.622,124.214c-0.399-1.345-0.922-2.646-1.607-3.831
			c-0.66-1.199-1.457-2.304-2.384-3.237c-0.44-0.495-0.957-0.889-1.444-1.31c-0.529-0.358-1.035-0.749-1.595-1.031
			c-0.536-0.333-1.121-0.532-1.682-0.774c-0.587-0.151-1.156-0.375-1.748-0.441c-1.161-0.236-2.368-0.174-3.437,0.009
			c-2.287,0.441-4.208,1.594-5.659,3.063c-1.461,1.452-2.475,3.131-3.157,4.712c-0.682,1.585-1.067,3.076-1.248,4.322
			c-0.117,0.62-0.162,1.183-0.196,1.673c-0.051,0.49-0.062,0.908-0.055,1.248c0,0.68,0,1.042,0,1.042v0.002l0.003,0.042
			c0,0,0.026,0.342,0.078,0.984c0.013,0.16,0.026,0.339,0.042,0.536c0.032,0.213,0.068,0.445,0.107,0.696
			c0.075,0.505,0.169,1.083,0.334,1.693c0.283,1.241,0.789,2.719,1.611,4.285c0.822,1.561,1.992,3.211,3.623,4.615
			c1.607,1.403,3.746,2.56,6.166,2.766c0.299,0.049,0.603,0.019,0.906,0.022c0.323-0.017,0.565,0.021,0.961-0.047
			c0.272-0.041,0.547-0.083,0.823-0.125c0.266-0.03,0.62-0.153,0.927-0.229c0.656-0.151,1.208-0.441,1.803-0.685
			c0.556-0.325,1.135-0.614,1.646-1.03c0.545-0.365,1.013-0.841,1.504-1.288c0.44-0.505,0.91-0.985,1.29-1.554
			c0.808-1.091,1.465-2.32,1.961-3.625c1.031-2.612,1.368-5.487,1.167-8.362C184.235,127.026,184.042,125.546,183.622,124.214"/>
		<path clip-path="url(#SVGID_4_)" fill="#FFFFFF" d="M160.388,129.381c0.447,8.022,5.991,14.272,12.379,13.956
			c6.384-0.314,11.194-7.083,10.742-15.111c-0.448-8.027-5.991-14.283-12.376-13.96
			C164.749,114.583,159.936,121.349,160.388,129.381"/>
		<path clip-path="url(#SVGID_4_)" fill="#F0F1F1" d="M166.238,129.517c-0.39-6.914,3.013-12.871,7.921-14.599
			c-0.689-0.131-1.393-0.191-2.109-0.154c-6.199,0.308-10.855,7.065-10.405,15.097c0.448,8.024,5.837,14.281,12.037,13.973
			c0.864-0.041,1.695-0.221,2.491-0.499C170.898,142.321,166.634,136.614,166.238,129.517"/>
		<path clip-path="url(#SVGID_4_)" fill="#006298" d="M169.48,121.777c-0.199-3.505,2.148-6.466,5.248-6.625
			c3.097-0.155,5.769,2.561,5.966,6.069c0.195,3.502-2.158,6.47-5.257,6.625C172.345,128,169.671,125.282,169.48,121.777"/>
		<g opacity="0.6" clip-path="url(#SVGID_4_)">
			<g>
				<defs>
					<rect id="SVGID_7_" x="169.467" y="115.145" width="7.819" height="12.707"/>
				</defs>
				<clipPath id="SVGID_8_">
					<use xlink:href="#SVGID_7_"  overflow="visible"/>
				</clipPath>
				<g clip-path="url(#SVGID_8_)">
					<defs>
						<path id="SVGID_9_" d="M172.989,121.512c-0.155-2.764,1.274-5.182,3.407-6.161c-0.535-0.156-1.097-0.23-1.669-0.199
							c-3.098,0.158-5.447,3.12-5.249,6.625c0.193,3.505,2.864,6.224,5.958,6.069c0.657-0.032,1.277-0.198,1.85-0.46
							C174.949,126.7,173.146,124.369,172.989,121.512"/>
					</defs>
					<clipPath id="SVGID_10_">
						<use xlink:href="#SVGID_9_"  overflow="visible"/>
					</clipPath>
					
						<linearGradient id="SVGID_11_" gradientUnits="userSpaceOnUse" x1="0" y1="301.7627" x2="1" y2="301.7627" gradientTransform="matrix(-5.1162 0.4747 0.4747 5.1162 32.6204 -1422.5719)">
						<stop  offset="0" style="stop-color:#FFFFFF"/>
						<stop  offset="0.9939" style="stop-color:#000000"/>
						<stop  offset="1" style="stop-color:#000000"/>
					</linearGradient>
					<polygon clip-path="url(#SVGID_10_)" fill="url(#SVGID_11_)" points="178.471,127.891 169.349,128.738 168.095,115.231 
						177.218,114.385 					"/>
				</g>
			</g>
		</g>
		<path clip-path="url(#SVGID_4_)" fill="#FFFFFF" d="M176.243,116.87c0,0,2.342,0.018,3.234,2.878
			c0.892,2.859-1.134,4.918-1.134,4.918S180.001,120.216,176.243,116.87"/>
		<path clip-path="url(#SVGID_4_)" fill="#006298" d="M160.267,135.189c0,0,1.248,3.194,11.533,2.421
			c10.281-0.772,12.225-3.21,12.225-3.21s-1.311,11.352-11.745,10.841C161.848,144.73,160.267,135.189,160.267,135.189"/>
		<path clip-path="url(#SVGID_4_)" fill="#006298" d="M135.165,126.289c-0.399-1.345-0.922-2.647-1.607-3.832
			c-0.66-1.198-1.457-2.303-2.384-3.236c-0.44-0.495-0.957-0.889-1.444-1.31c-0.53-0.358-1.036-0.749-1.595-1.031
			c-0.536-0.333-1.121-0.532-1.682-0.774c-0.587-0.151-1.156-0.375-1.748-0.441c-1.162-0.236-2.368-0.174-3.436,0.009
			c-2.287,0.441-4.208,1.594-5.659,3.063c-1.461,1.452-2.475,3.131-3.158,4.712c-0.681,1.585-1.067,3.076-1.248,4.322
			c-0.117,0.62-0.162,1.183-0.196,1.673c-0.051,0.49-0.063,0.908-0.055,1.248c0,0.68,0,1.042,0,1.042v0.002l0.003,0.042
			c0,0,0.027,0.342,0.078,0.984c0.013,0.16,0.027,0.339,0.042,0.536c0.033,0.213,0.069,0.445,0.108,0.695
			c0.074,0.506,0.169,1.084,0.334,1.694c0.283,1.241,0.789,2.719,1.611,4.285c0.822,1.561,1.992,3.211,3.623,4.615
			c1.608,1.403,3.746,2.56,6.166,2.766c0.299,0.049,0.603,0.019,0.906,0.022c0.324-0.018,0.566,0.021,0.961-0.047
			c0.273-0.041,0.547-0.083,0.824-0.125c0.265-0.03,0.62-0.153,0.926-0.23c0.657-0.15,1.208-0.44,1.803-0.684
			c0.556-0.325,1.135-0.615,1.647-1.03c0.544-0.365,1.012-0.841,1.503-1.288c0.441-0.505,0.911-0.985,1.29-1.554
			c0.808-1.091,1.465-2.32,1.961-3.625c1.032-2.612,1.369-5.487,1.167-8.362C135.778,129.101,135.585,127.621,135.165,126.289"/>
		<path clip-path="url(#SVGID_4_)" fill="#FFFFFF" d="M111.931,131.456c0.447,8.022,5.991,14.273,12.379,13.956
			c6.384-0.314,11.194-7.083,10.742-15.111c-0.448-8.027-5.991-14.283-12.376-13.96
			C116.292,116.658,111.479,123.423,111.931,131.456"/>
		<path clip-path="url(#SVGID_4_)" fill="#F0F1F1" d="M117.781,131.591c-0.389-6.914,3.013-12.871,7.921-14.599
			c-0.689-0.131-1.392-0.191-2.109-0.154c-6.199,0.307-10.856,7.065-10.405,15.097c0.448,8.024,5.837,14.281,12.037,13.973
			c0.864-0.041,1.695-0.221,2.491-0.499C122.442,144.396,118.177,138.688,117.781,131.591"/>
		<path clip-path="url(#SVGID_4_)" fill="#006298" d="M121.425,123.721c-0.199-3.505,2.149-6.466,5.248-6.625
			c3.097-0.155,5.769,2.561,5.966,6.069c0.195,3.502-2.158,6.47-5.257,6.625C124.29,129.945,121.616,127.226,121.425,123.721"/>
		<g opacity="0.6" clip-path="url(#SVGID_4_)">
			<g>
				<defs>
					<rect id="SVGID_12_" x="121.412" y="117.089" width="7.819" height="12.707"/>
				</defs>
				<clipPath id="SVGID_13_">
					<use xlink:href="#SVGID_12_"  overflow="visible"/>
				</clipPath>
				<g clip-path="url(#SVGID_13_)">
					<defs>
						<path id="SVGID_14_" d="M124.933,123.456c-0.154-2.764,1.276-5.182,3.407-6.16c-0.534-0.157-1.095-0.23-1.667-0.2
							c-3.099,0.158-5.448,3.12-5.25,6.625c0.193,3.505,2.865,6.224,5.959,6.069c0.657-0.032,1.277-0.198,1.849-0.46
							C126.893,128.644,125.091,126.313,124.933,123.456"/>
					</defs>
					<clipPath id="SVGID_15_">
						<use xlink:href="#SVGID_14_"  overflow="visible"/>
					</clipPath>
					
						<linearGradient id="SVGID_16_" gradientUnits="userSpaceOnUse" x1="0" y1="301.7646" x2="1" y2="301.7646" gradientTransform="matrix(-5.1162 0.4747 0.4747 5.1162 -15.4338 -1420.6219)">
						<stop  offset="0" style="stop-color:#FFFFFF"/>
						<stop  offset="0.9939" style="stop-color:#000000"/>
						<stop  offset="1" style="stop-color:#000000"/>
					</linearGradient>
					<polygon clip-path="url(#SVGID_15_)" fill="url(#SVGID_16_)" points="130.416,129.835 121.293,130.682 120.041,117.176 
						129.163,116.33 					"/>
				</g>
			</g>
		</g>
		<path clip-path="url(#SVGID_4_)" fill="#FFFFFF" d="M128.188,118.813c0,0,2.342,0.018,3.234,2.878
			c0.892,2.859-1.134,4.918-1.134,4.918S131.946,122.161,128.188,118.813"/>
		<path clip-path="url(#SVGID_4_)" fill="#006298" d="M111.81,137.264c0,0,1.248,3.194,11.533,2.421
			c10.282-0.772,12.225-3.211,12.225-3.211s-1.311,11.353-11.745,10.842C113.391,146.804,111.81,137.264,111.81,137.264"/>
		<path clip-path="url(#SVGID_4_)" fill="#006298" d="M104.109,130.631c0,0,4.587-7.498,15.232-12.007
			c10.648-4.513,14.701-4.379,14.956-9.468c0.253-5.089-2.24-6.132-2.24-6.132s-8.947,1.171-14.934,5.04
			C111.134,111.931,104.412,120.672,104.109,130.631"/>
		<path clip-path="url(#SVGID_4_)" fill="#006298" d="M188.488,121.106c0,0-6.102-5.664-16.723-6.584
			c-10.618-0.927-14.149,0.482-15.775-4.266c-1.621-4.744,0.289-6.517,0.289-6.517s8.2-1.709,14.54,0.073
			C177.156,105.59,185.481,111.757,188.488,121.106"/>
		<path clip-path="url(#SVGID_4_)" d="M208.241,110.688l-3.062-6.373c0,0-1.278,4.834-1.841,6.991
			C202.774,113.459,208.241,110.688,208.241,110.688"/>
		<path clip-path="url(#SVGID_4_)" fill-rule="evenodd" clip-rule="evenodd" d="M208.241,110.688
			c-10.741-4.875-33.16-5.558-45.056-2.447c-2.012,0.502-9.112,3.371-9.714,3.606c-1.622,0.622-3.233,0.898-4.833,0.934v-0.025
			c-0.23,0.012-0.46,0.02-0.695,0.025c-0.233-0.005-0.46-0.013-0.693-0.025v0.025c-1.599-0.036-3.21-0.312-4.835-0.934
			c-0.602-0.235-7.697-3.104-9.709-3.606c-11.898-3.111-33.394-2.109-44.137,2.766v4.409c3.23,5.651,6.875,10.531,7.507,11.899
			c2.512,5.413,3.864,13.833,7.157,18.014c4.11,5.217,13.462,5.66,21.127,5.087c11.362-0.861,14.272-8.121,17.885-18.651
			c1.222-3.554,2.161-8.272,5.005-8.908c0.241-0.046,0.479-0.07,0.693-0.075c0.22,0.005,0.452,0.029,0.695,0.075
			c2.847,0.636,3.789,5.354,5.005,8.908c3.609,10.53,6.518,17.79,17.888,18.651c7.662,0.573,17.012,0.13,21.125-5.087
			c3.292-4.181,4.646-12.601,7.154-18.014c0.583-1.26,5.485-7.16,8.431-11.899V110.688z M139.007,131.553
			c-1.462,6.426-3.487,11.016-7.155,13.564c-5.482,3.816-18.983,4.143-24.361,0c-3.67-2.834-5.041-8.153-5.958-15.047
			c-0.611-4.55-1.046-11.021,0.511-13.987c2.694-5.15,14.406-5.27,21.461-4.664c6.673,0.577,15.045,2.625,16.356,8.056
			C140.771,123.242,139.715,128.452,139.007,131.553 M194.356,130.07c-0.917,6.894-2.291,12.213-5.96,15.047
			c-5.376,4.143-18.877,3.816-24.36,0c-3.665-2.548-5.695-7.138-7.157-13.564c-0.705-3.101-1.759-8.311-0.853-12.078
			c1.306-5.431,9.688-7.479,16.355-8.056c7.058-0.606,18.771-0.486,21.469,4.664C195.402,119.049,194.97,125.52,194.356,130.07"/>
		<polygon clip-path="url(#SVGID_4_)" fill-rule="evenodd" clip-rule="evenodd" points="91.469,111.007 44.987,110.587 
			98.281,121.499 		"/>
		<g opacity="0.3" clip-path="url(#SVGID_4_)">
			<g>
				<defs>
					<rect id="SVGID_17_" x="57.112" y="112.054" width="35.869" height="6.913"/>
				</defs>
				<clipPath id="SVGID_18_">
					<use xlink:href="#SVGID_17_"  overflow="visible"/>
				</clipPath>
				<g clip-path="url(#SVGID_18_)">
					<defs>
						<polygon id="SVGID_19_" points="90.894,112.441 92.98,118.967 57.112,112.054 						"/>
					</defs>
					<clipPath id="SVGID_20_">
						<use xlink:href="#SVGID_19_"  overflow="visible"/>
					</clipPath>
					
						<linearGradient id="SVGID_21_" gradientUnits="userSpaceOnUse" x1="0" y1="301.8271" x2="1" y2="301.8271" gradientTransform="matrix(-29.6984 -2.5828 -2.5828 29.6984 874.9068 -8846.5117)">
						<stop  offset="0" style="stop-color:#FFFFFF"/>
						<stop  offset="0.1654" style="stop-color:#CDCED3"/>
						<stop  offset="0.3307" style="stop-color:#A09EA4"/>
						<stop  offset="0.4898" style="stop-color:#7A797E"/>
						<stop  offset="0.64" style="stop-color:#59595C"/>
						<stop  offset="0.7792" style="stop-color:#3F3C3C"/>
						<stop  offset="0.9034" style="stop-color:#191818"/>
						<stop  offset="1" style="stop-color:#000000"/>
					</linearGradient>
					<polygon clip-path="url(#SVGID_20_)" fill="url(#SVGID_21_)" points="92.711,122.063 56.515,118.916 57.381,108.958 
						93.577,112.106 					"/>
				</g>
			</g>
		</g>
		<path clip-path="url(#SVGID_4_)" fill="#006298" d="M116.522,171.028c0,0,0.342-0.487,1.059-1.238
			c0.718-0.745,1.8-1.777,3.27-2.802c0.725-0.528,1.551-1.048,2.459-1.543c0.915-0.478,1.89-0.99,2.963-1.377
			c1.061-0.413,2.197-0.76,3.379-1.008c1.179-0.27,2.409-0.4,3.643-0.469c1.235-0.034,2.478,0.01,3.683,0.199
			c0.603,0.093,1.2,0.182,1.776,0.346c0.58,0.135,1.148,0.286,1.69,0.491c0.549,0.179,1.081,0.372,1.578,0.618
			c0.508,0.221,0.993,0.454,1.447,0.718c0.937,0.467,1.735,1.054,2.473,1.569c0.704,0.567,1.361,1.061,1.865,1.591
			c0.521,0.508,0.973,0.942,1.297,1.353c0.671,0.794,1.021,1.267,1.021,1.267s-0.53-0.282-1.399-0.807
			c-0.422-0.278-0.993-0.532-1.592-0.883c-0.597-0.357-1.335-0.645-2.075-1.043c-0.784-0.32-1.607-0.696-2.506-1.004
			c-0.441-0.175-0.907-0.316-1.386-0.442c-0.239-0.064-0.477-0.136-0.717-0.212c-0.244-0.055-0.491-0.11-0.74-0.168
			c-0.989-0.248-2.03-0.393-3.084-0.506c-1.056-0.102-2.135-0.134-3.213-0.09c-1.079,0.045-2.159,0.148-3.217,0.326
			c-1.058,0.173-2.096,0.398-3.095,0.673c-1,0.263-1.96,0.576-2.869,0.889c-0.894,0.35-1.759,0.661-2.537,1.004
			c-1.563,0.673-2.852,1.316-3.756,1.783C117.039,170.735,116.522,171.028,116.522,171.028"/>
		<path clip-path="url(#SVGID_4_)" fill="#006298" d="M128.9,178.259c0,0,0.024-0.2,0.147-0.499c0.118-0.305,0.335-0.703,0.678-1.12
			c0.347-0.409,0.829-0.822,1.437-1.139c0.609-0.309,1.341-0.537,2.111-0.558c0.382-0.018,0.768,0.009,1.141,0.093
			c0.377,0.043,0.723,0.207,1.052,0.34c0.336,0.121,0.603,0.355,0.865,0.532c0.264,0.18,0.457,0.42,0.634,0.629
			c0.17,0.217,0.326,0.405,0.416,0.618c0.105,0.195,0.172,0.387,0.228,0.535c0.109,0.304,0.137,0.493,0.137,0.493
			s-0.209-0.001-0.516-0.032c-0.152-0.017-0.338-0.028-0.522-0.065c-0.184-0.043-0.419-0.025-0.632-0.056
			c-0.219-0.018-0.434-0.067-0.668-0.06c-0.231,0.003-0.446-0.058-0.677-0.038c-0.228,0.008-0.444-0.028-0.671-0.009
			c-0.223,0.003-0.444-0.011-0.672,0.017c-0.226-0.019-0.455,0.032-0.689,0.026c-0.242,0.019-0.479,0.037-0.71,0.054
			c-0.517,0.046-0.999,0.089-1.413,0.126c-0.484,0.036-0.888,0.065-1.171,0.086C129.101,178.252,128.9,178.259,128.9,178.259"/>
		<path clip-path="url(#SVGID_4_)" fill="#D8DADE" d="M197.063,142.17c0,0-2.271,12.319,1.008,14.626c0,0,7.164-0.15,10.929-2.686
			c3.764-2.536,7.057-8.364,11.299-7.757c0,0-0.696-5.561-6.362-4.42c0,0-3.714,2.811-8.739,3.034
			C200.17,145.19,197.063,142.17,197.063,142.17"/>
		<path clip-path="url(#SVGID_4_)" fill="#FFFFFD" d="M206.055,95.836c0,0,3.788-0.699,3.395,3.332
			c-0.395,4.032,0.053,27.79,3.924,32.207c0,0,4.362,8.071,5.672,8.455c0,0-4.258-1.316-7.206,5.593
			c-2.948,6.91-10.147,11.79-13.424,11.373s-2.118-7.509-2.118-7.509l0.449-5.938c0,0,7.934-29.288,8.156-35.128
			C205.124,102.381,206.055,95.836,206.055,95.836"/>
		<path clip-path="url(#SVGID_4_)" fill="#EDEEF0" d="M201.272,150.608c0,0,4.592-0.191,8.724-13.045l2.524-1.088
			c0,0-5.535-13.176-4.948-20.964c0,0-1.934,4.944,2.883,18.889c0,0-4.321-7.657-4.687-12.002c0,0-0.199,4.937,2.473,12.002
			C208.241,134.4,207.7,143.683,201.272,150.608"/>
		<path clip-path="url(#SVGID_4_)" fill="#D5EDF8" d="M83.564,130.631c0,0,1.536,7.668,0.647,13.214
			C83.542,148.024,94.756,155.85,83.564,130.631"/>
		<path clip-path="url(#SVGID_4_)" fill="#D5EDF8" d="M76.489,139.609c0,0,0.648,3.235,0.273,5.575
			C76.479,146.948,81.211,150.249,76.489,139.609"/>
		<path clip-path="url(#SVGID_4_)" fill="#D5EDF8" d="M94.982,146.784c0,0,0.51,3.26,1.672,5.326
			C97.529,153.667,94.231,158.4,94.982,146.784"/>
	</g>
</g>
</svg>
