<?xml version="1.0" encoding="utf-8"?>
<!-- Generator: Adobe Illustrator 18.1.1, SVG Export Plug-In . SVG Version: 6.00 Build 0)  -->
<svg version="1.1" id="Capa_1" xmlns="http://www.w3.org/2000/svg" xmlns:xlink="http://www.w3.org/1999/xlink" x="0px" y="0px"
	 viewBox="0 0 550 112" enable-background="new 0 0 550 112" xml:space="preserve">
<g>
	<g>
		<path fill="#6F90C6" d="M102.2,61.9c0,0-3.2-1.2-7-0.6c-1-1.8-5.3-9.6-4.7-13.4c0.7-4.3,6-6.4,7.9-7.2c0,0,0.8-0.3,0.6-0.9
			c-0.3-0.7-2.4,0-2.7,0.1C95.8,40.1,91,41,88,46.4c-2.8,5,1.4,14.5,2.5,16.8c-2.9,1.9-5.5,5.6-6.6,12.2c-1.9-1.4-4.1-3.4-6.6-6.1
			c0,0-1.2-1.3-2.6-2.9c-3.8-4.1-1.8-8.3,1.5-20.8c0.1-0.4,0.2-0.9,0.3-1.4c1.2-3.2,1.8-6.6,1.8-10.2C78.2,17.5,65,4.3,48.6,4.3
			c-10.7,0-20,5.6-25.2,14.1c-3,4.3-4.2,9.1-4.3,13.6c0,0.6-0.1,1.3-0.1,1.9c0,3.8,0.7,7.4,2,10.7c0.1,0.3,0.2,0.6,0.3,0.9
			c1.1,2.5,2.5,4.9,4.2,7c3.8,5.2,8.4,9.7,9.8,12.8c1.3,3,0.8,5.2,0.2,6.3c-1.2,1.7-2.2,3.1-2.2,3.1c-2.2,3.1-4.1,5.3-5.8,7
			c-2-6.4-5.1-9.7-8.2-11.2c0.8-2.4,3.7-12.4,0.3-16.9c-3.6-4.9-8.5-5.2-8.9-5.3c-0.4,0-2.5-0.4-2.7,0.3c-0.2,0.6,0.7,0.8,0.7,0.8
			c2,0.5,7.5,1.9,8.8,6.1c1.1,3.7-2.2,12-2.9,13.9c-3.8-0.1-6.8,1.5-6.8,1.5C6.3,71.4,6.6,72,6.6,72s0.2,0.4,1.3-0.1
			c1.4-0.5,5.5-0.5,5.5-0.5c0,0,0.1,0,0.1,0c-1,1.7-3.4,6.1-3.3,11.3c0,7.9,6.3,11.4,14.6,10.1c0.3,3.5,2.4,16.2,16,14.1
			c12.8-1.9,14.7-13,15.7-21.9c2.5,8.1,6.2,17.2,17.7,17.1c13.7-0.2,14.2-12.6,14-16.1c8.4,0.1,14.1-4.1,13.1-12
			c-0.7-5.2-3.6-9.3-4.8-10.8c0,0,0.6-0.1,1-0.2c2.9-0.6,3.6-0.4,4.7-0.1c1.2,0.4,1.3-0.1,1.3-0.1S103.7,62.4,102.2,61.9z M17.6,84
			c-1.8-1.9,0.2-8.6,1-10.9c4.1,2.9,4.9,8.8,5.1,11.5C20.8,86.1,18.8,85.3,17.6,84z M38,97.9c-4.4,0.8-7-3.3-7.9-6.9
			c6.6-3.7,13.1-11.3,14.2-12.5l0.2,0.1C44.5,78.6,43.7,96.9,38,97.9z M76.3,92.4c-5.7-0.3-9.6-17.9-9.6-17.9l0.1-0.1
			c1.2,1.1,8.7,7.7,15.7,10.6C82.1,88.6,80.8,92.6,76.3,92.4z M94.1,76.4c-1,1.4-2.9,2.4-6,1.3c-0.2-2.6-0.1-8.7,3.6-12
			C92.8,67.8,95.7,74.3,94.1,76.4z"/>
		<g>
			<path fill="#2D6194" d="M36.8,37.3c0,3.1-2.5,5.6-5.6,5.6c-3.1,0-5.6-2.5-5.6-5.6c0-3.1,2.5-5.6,5.6-5.6
				C34.3,31.7,36.8,34.2,36.8,37.3z"/>
			<path fill="#2D6194" d="M37.3,27.1c0,1.6-1.3,2.9-2.9,2.9c-1.6,0-2.9-1.3-2.9-2.9c0-1.6,1.3-2.9,2.9-2.9
				C36,24.3,37.3,25.6,37.3,27.1z"/>
			<path fill="#2D6194" d="M29.9,28.6c0,0.8-0.6,1.4-1.4,1.4c-0.8,0-1.4-0.6-1.4-1.4c0-0.8,0.6-1.4,1.4-1.4
				C29.3,27.2,29.9,27.8,29.9,28.6z"/>
		</g>
		<g opacity="0.3">
			<g>
				<path fill="#2D6194" d="M35,51.9C23,39.1,28.8,20,32.6,9c-3.4,1.9-7.5,6.6-9.1,9.3c-3,4.3-4.2,9.1-4.3,13.6
					c0,0.6-0.1,1.3-0.1,1.9c0,3.8,0.7,7.4,2,10.7c0.1,0.3,0.2,0.6,0.3,0.9c1.1,2.5,2.5,4.9,4.2,7c3.8,5.2,8.4,9.7,9.8,12.8
					c1.3,3,0.8,5.2,0.2,6.3c-1.2,1.7-2.2,3.1-2.2,3.1c-2.2,3.1-4.1,5.3-5.8,7c-2-6.4-5.1-9.7-8.2-11.2c0.8-2.4,3.7-12.4,0.3-16.9
					c-3.6-4.9-8.5-5.2-8.9-5.3c-0.4,0-2.5-0.4-2.7,0.3c-0.2,0.6,0.7,0.8,0.7,0.8c2,0.5,7.5,1.9,8.8,6.1c1.1,3.7-2.2,12-2.9,13.9
					c-3.8-0.1-6.8,1.5-6.8,1.5C6.3,71.3,6.6,72,6.6,72s0.2,0.4,1.3-0.1c1.4-0.5,5.5-0.5,5.5-0.5c0,0,0.1,0,0.1,0
					c-1,1.7-3.4,6.1-3.3,11.3c0,7.9,6.3,11.4,14.6,10.1c0,0.4,0.1,0.8,0.2,1.4c0.1,0.4,0.1,0.7,0.2,1c0.1,0.5,0.2,1.1,0.4,1.7
					c0.1,0.2,0.1,0.4,0.2,0.5c0,0.1,0.1,0.2,0.1,0.3c3,9.1,13.1,7.5,19.1,2.9C51.9,95.7,55.6,74.1,35,51.9z M17.6,84
					c-1.8-1.9,0.2-8.6,1-10.9c4.1,2.9,4.9,8.8,5.1,11.5C20.8,86,18.8,85.2,17.6,84z M38,97.8c-4.4,0.8-7-3.3-7.9-6.9
					c6.6-3.7,13.1-11.3,14.2-12.5l0.2,0.1C44.5,78.5,43.7,96.8,38,97.8z"/>
			</g>
		</g>
	</g>
	<g>
		<path fill="#5B5B5F" d="M370.2,58.2h0.1l10.4-27.4h12v4.9l-2,0.2c-1.1,0.1-1.8,0.5-1.8,2.1l1.5,27.7l3.8,0.2v5.2h-14.6v-4.9
			l2.2-0.2c1-0.1,1.6-0.4,1.6-1.6L382.2,43h-0.1l-9.3,24.2H367l-9.2-23.9h-0.1l-1.2,22.5l3.9,0.2v5.2h-14.3v-4.9l2.2-0.2
			c0.9-0.1,1.5-0.7,1.5-1.6l1.6-28.2l-3.7-0.2v-5.1h12.2L370.2,58.2z"/>
		<path fill="#5B5B5F" d="M420.5,48.1c0,9.3-10.1,10.9-17.3,11c0.2,3.9,2.3,7.2,7.4,7.2c3.6,0,6.2-1.6,7.6-2.7l2.3,4.9
			c-1,0.8-5,3.4-10.7,3.4c-10.3,0-14.3-6.3-14.3-15.3c0-9,5-16.8,15-16.8C416.6,39.7,420.5,42.7,420.5,48.1z M410.2,44.9
			c-4.8,0-7,4.7-7.2,9.1c4.5-0.1,10.8-1.1,10.8-5.8C413.9,46,412.4,44.9,410.2,44.9z"/>
		<path fill="#5B5B5F" d="M432.9,72.5c0,5.8-1.1,11.5-9.7,11.5c-2.5,0-5.6-0.8-7.7-2.1l2.2-5c1.4,0.8,2.9,1.3,4.5,1.3
			c2.3,0,3.6-1.3,3.6-5.3V47.5c0-1.3-0.4-1.7-1.5-1.8l-2.1-0.1v-5h10.8V72.5z"/>
		<path fill="#5B5B5F" d="M449,39.7c4.5,0,13.5,1.4,13.5,15.3c0,11.6-6.5,17-14.5,17c-8.1,0-13.4-5.2-13.4-16.2
			C434.6,43.2,442.8,39.7,449,39.7z M455.1,56c0-6.8-1.6-11-6.5-11c-4.8,0-6.7,4.1-6.7,9.9c0,5.6,0.8,11.7,6.6,11.7
			C453.3,66.6,455.1,62.3,455.1,56z"/>
		<path fill="#5B5B5F" d="M465,47.5c0-1.3-0.4-1.8-1.5-1.8l-2.5-0.2v-4.9h10.2v4.5c1.4-3,4.6-5.5,8.6-5.5c2,0,3.8,0.4,5.8,1.3v9
			l-5.6,0.4v-2.8c0-0.7-0.1-1.3-0.6-1.5c-0.5-0.2-1-0.3-1.6-0.3c-3.3,0-5.5,2.6-5.5,6.1V66l5.3,0.2v4.8h-16.2v-4.6l2-0.2
			c1.1-0.1,1.8-0.5,1.8-2V47.5z"/>
		<path fill="#6F90C6" d="M485,68.5c0-1.2,0.8-2.1,2-2.1c1.1,0,1.9,0.9,1.9,2.1c0,1.2-0.8,2.1-2,2.1C485.8,70.6,485,69.7,485,68.5z"
			/>
		<path fill="#6F90C6" d="M501.9,69.6c-0.8,0.4-2.4,0.9-4.6,0.9c-4.8,0-7.9-3.3-7.9-8.1c0-4.9,3.4-8.5,8.6-8.5c1.7,0,3.2,0.4,4,0.9
			l-0.7,2.2c-0.7-0.4-1.8-0.8-3.4-0.8c-3.6,0-5.6,2.7-5.6,6c0,3.7,2.4,6,5.5,6c1.7,0,2.7-0.4,3.6-0.8L501.9,69.6z"/>
		<path fill="#6F90C6" d="M519.1,62.1c0,5.9-4.1,8.5-7.9,8.5c-4.3,0-7.6-3.2-7.6-8.2c0-5.3,3.5-8.4,7.9-8.4
			C516,53.9,519.1,57.3,519.1,62.1z M506.1,62.3c0,3.5,2,6.1,4.8,6.1c2.8,0,4.8-2.6,4.8-6.2c0-2.7-1.3-6.1-4.8-6.1
			C507.5,56.1,506.1,59.3,506.1,62.3z"/>
		<path fill="#6F90C6" d="M521.2,54.3h2.4l0.1,2.6h0.1c0.9-1.5,2.4-2.9,5-2.9c2.1,0,3.8,1.3,4.5,3.2h0.1c0.5-0.9,1.1-1.6,1.8-2.1
			c1-0.7,2-1.1,3.5-1.1c2.1,0,5.3,1.4,5.3,6.9v9.3h-2.8v-9c0-3.1-1.1-4.9-3.4-4.9c-1.7,0-2.9,1.2-3.5,2.6c-0.1,0.4-0.2,0.9-0.2,1.4
			v9.8h-2.8v-9.5c0-2.5-1.1-4.3-3.3-4.3c-1.8,0-3.1,1.4-3.6,2.9c-0.2,0.4-0.2,0.9-0.2,1.4v9.6h-2.8V54.3z"/>
		<path fill="#5B5B5F" d="M133.4,36.1c-7.6,0-11.4,5.5-11.4,14.6c0,9.5,3.2,15.4,11.6,15.2c1.7,0,3.3-0.2,4.4-0.6
			c1.1-0.4,1.3-0.8,1.3-2v-4.8l6.2,0.4v10.5c-3.3,1.8-8.1,2.5-12,2.5c-12.3,0-19-6.9-19-20.7c0-15.8,9.7-21.1,19-21.1
			c3.6,0,8.3,0.8,12,2.5v10.3l-6.2,0.4v-4.7c0-1.1-0.7-1.6-1.8-2C136.2,36.2,134.6,36.1,133.4,36.1z"/>
		<path fill="#5B5B5F" d="M161.4,39.3c4.5,0,13.5,1.4,13.5,15.3c0,11.6-6.5,17-14.5,17c-8.1,0-13.5-5.2-13.5-16.2
			C147,42.8,155.1,39.3,161.4,39.3z M167.5,55.6c0-6.8-1.6-11-6.5-11c-4.8,0-6.7,4.1-6.7,9.9c0,5.6,0.8,11.7,6.6,11.7
			C165.6,66.2,167.5,61.9,167.5,55.6z"/>
		<path fill="#5B5B5F" d="M282.4,64.3c0,1.3,0.4,1.7,1.5,1.8l1.9,0.1v4.8h-9.6v-3.5l-0.2-0.1c-1.9,2.7-5,4.4-8.3,4.4
			c-8.5,0-12.1-6.1-12.1-14.7c0-10.7,5.1-17.4,16-17.4c2,0,6.4,0.5,10.8,2.1V64.3z M275.3,45.7c-0.9-0.4-2.8-0.8-4.7-0.8
			c-5.8,0-7.7,5.4-7.7,11.9c0,5,1.2,9.8,6.3,9.8c3.8,0,6.1-2.7,6.1-5.3V45.7z"/>
		<path fill="#5B5B5F" d="M340.5,64.3c0,1.3,0.4,1.7,1.5,1.8l1.9,0.1v4.8h-9.6v-3.5l-0.2-0.1c-1.9,2.7-5,4.4-8.3,4.4
			c-8.5,0-12.1-6.1-12.1-14.7c0-10.7,5.1-17.4,16-17.4c2,0,6.4,0.5,10.8,2.1V64.3z M333.4,45.7c-0.9-0.4-2.8-0.8-4.7-0.8
			c-5.8,0-7.7,5.4-7.7,11.9c0,5,1.2,9.8,6.3,9.8c3.8,0,6.1-2.7,6.1-5.3V45.7z"/>
		<g>
			<path fill="#5B5B5F" d="M243.5,39.7c-5.2,0-8.5,2.8-9.6,4.8v-3.9h-10.2v4.9l2.5,0.2c1.2,0,1.5,0.5,1.5,1.8v29.3
				c0,1.5-0.6,1.9-1.8,2l-2,0.2v4.6h10.7v-5V74v-3.7c1.6,1,4.1,1.8,6.5,1.8c8,0,13.3-5.8,13.3-16.9
				C254.5,44.3,250.2,39.7,243.5,39.7z M240.1,66.3c-1.6,0-3.8-0.5-5.3-1.5V50.8c0-2.8,2.7-5.2,6.1-5.2c3.2,0,6.1,2.1,6.1,10.1
				C247,61,245.2,66.3,240.1,66.3z"/>
		</g>
		<g>
			<path fill="#5B5B5F" d="M306.5,39.7c-4,0-7.2,2.4-8.6,5.5v-4.5h-10.2v4.9l2.5,0.2c1.2,0.1,1.5,0.5,1.5,1.8v16.8
				c0,1.5-0.6,1.9-1.8,2l-2,0.2v4.6h11v-5v-2.8V52c0-3.5,2.2-6.1,5.5-6.1c0.7,0,1.1,0.1,1.6,0.3c0.5,0.2,0.6,0.8,0.6,1.5v2.8
				l5.6-0.4v-9C310.3,40.1,308.5,39.7,306.5,39.7z"/>
		</g>
		<g>
			<path fill="#5B5B5F" d="M222.3,66.1V50.3c0-7.1-3.4-10.5-9.1-10.5c-4,0-7.1,1.8-9.2,4.8c-1.4-3.3-4.2-4.8-8.1-4.8
				c-4,0-7.1,1.8-9.2,4.8v-3.9h-10.2v4.9l2.5,0.2c1.2,0.1,1.5,0.5,1.5,1.9v16.7h-0.1c0,1.5-0.6,1.9-1.8,2l-2,0.2v4.6h11v-5v-4.4
				V51.4c0-3.1,1.6-6.1,5.9-6.1c3.9,0,4.2,2.8,4.2,6.5v12.5c0,1.5-0.6,1.9-1.8,2l-2,0.2v4.6h14.3v-4.8l-3.3-0.2V51.5
				c0-3.6,1.8-6.2,5.9-6.2c3.9,0,4.2,2.8,4.2,6.5v12.5c-0.1,1.5-0.7,1.8-1.8,1.9l-2,0.2v4.6h14.4v-4.8L222.3,66.1z"/>
		</g>
		<path fill="#5B5B5F" d="M432.4,32.3c0-2.6-2.1-4.8-4.8-4.8c-2.6,0-4.8,2.1-4.8,4.8c0,2.6,2.1,4.8,4.8,4.8
			C430.2,37.1,432.4,35,432.4,32.3z"/>
	</g>
</g>
<g>
</g>
<g>
</g>
<g>
</g>
<g>
</g>
<g>
</g>
<g>
</g>
<g>
</g>
<g>
</g>
<g>
</g>
<g>
</g>
<g>
</g>
<g>
</g>
<g>
</g>
<g>
</g>
<g>
</g>
</svg>
