<?xml version="1.0" encoding="UTF-8" standalone="no"?>
<!-- Generator: Adobe Illustrator 18.1.1, SVG Export Plug-In . SVG Version: 6.00 Build 0)  -->
<svg id="Capa_1" xmlns="http://www.w3.org/2000/svg" xml:space="preserve" viewBox="0 0 550 112" version="1.1" y="0px" x="0px" xmlns:xlink="http://www.w3.org/1999/xlink" enable-background="new 0 0 550 112">
		<path d="m102.2 61.9s-3.2-1.2-7-0.6c-1-1.8-5.3-9.6-4.7-13.4 0.7-4.3 6-6.4 7.9-7.2 0 0 0.8-0.3 0.6-0.9-0.3-0.7-2.4 0-2.7 0.1-0.5 0.2-5.3 1.1-8.3 6.5-2.8 5 1.4 14.5 2.5 16.8-2.9 1.9-5.5 5.6-6.6 12.2-1.9-1.4-4.1-3.4-6.6-6.1 0 0-1.2-1.3-2.6-2.9-3.8-4.1-1.8-8.3 1.5-20.8 0.1-0.4 0.2-0.9 0.3-1.4 1.2-3.2 1.8-6.6 1.8-10.2-0.1-16.5-13.3-29.7-29.7-29.7-10.7 0-20 5.6-25.2 14.1-3 4.3-4.2 9.1-4.3 13.6 0 0.6-0.1 1.3-0.1 1.9 0 3.8 0.7 7.4 2 10.7l0.3 0.9c1.1 2.5 2.5 4.9 4.2 7 3.8 5.2 8.4 9.7 9.8 12.8 1.3 3 0.8 5.2 0.2 6.3-1.2 1.7-2.2 3.1-2.2 3.1-2.2 3.1-4.1 5.3-5.8 7-2-6.4-5.1-9.7-8.2-11.2 0.8-2.4 3.7-12.4 0.3-16.9-3.6-4.9-8.5-5.2-8.9-5.3-0.4 0-2.5-0.4-2.7 0.3-0.2 0.6 0.7 0.8 0.7 0.8 2 0.5 7.5 1.9 8.8 6.1 1.1 3.7-2.2 12-2.9 13.9-3.8-0.1-6.8 1.5-6.8 1.5-1.5 0.5-1.2 1.1-1.2 1.1s0.2 0.4 1.3-0.1c1.4-0.5 5.5-0.5 5.5-0.5h0.1c-1 1.7-3.4 6.1-3.3 11.3 0 7.9 6.3 11.4 14.6 10.1 0.3 3.5 2.4 16.2 16 14.1 12.8-1.9 14.7-13 15.7-21.9 2.5 8.1 6.2 17.2 17.7 17.1 13.7-0.2 14.2-12.6 14-16.1 8.4 0.1 14.1-4.1 13.1-12-0.7-5.2-3.6-9.3-4.8-10.8 0 0 0.6-0.1 1-0.2 2.9-0.6 3.6-0.4 4.7-0.1 1.2 0.4 1.3-0.1 1.3-0.1s0.2-0.4-1.3-0.9zm-84.6 22.1c-1.8-1.9 0.2-8.6 1-10.9 4.1 2.9 4.9 8.8 5.1 11.5-2.9 1.5-4.9 0.7-6.1-0.6zm20.4 13.9c-4.4 0.8-7-3.3-7.9-6.9 6.6-3.7 13.1-11.3 14.2-12.5l0.2 0.1s-0.8 18.3-6.5 19.3zm38.3-5.5c-5.7-0.3-9.6-17.9-9.6-17.9l0.1-0.1c1.2 1.1 8.7 7.7 15.7 10.6-0.4 3.6-1.7 7.6-6.2 7.4zm17.8-16c-1 1.4-2.9 2.4-6 1.3-0.2-2.6-0.1-8.7 3.6-12 1.1 2.1 4 8.6 2.4 10.7z" fill="#6F90C6"/>
		<g fill="#2D6194">
			<path d="m36.8 37.3c0 3.1-2.5 5.6-5.6 5.6s-5.6-2.5-5.6-5.6 2.5-5.6 5.6-5.6 5.6 2.5 5.6 5.6z"/>
			<path d="m37.3 27.1c0 1.6-1.3 2.9-2.9 2.9s-2.9-1.3-2.9-2.9 1.3-2.9 2.9-2.9c1.6 0.1 2.9 1.4 2.9 2.9z"/>
			<path d="m29.9 28.6c0 0.8-0.6 1.4-1.4 1.4s-1.4-0.6-1.4-1.4 0.6-1.4 1.4-1.4 1.4 0.6 1.4 1.4z"/>
		</g>
		<g opacity=".3">
				<path d="m35 51.9c-12-12.8-6.2-31.9-2.4-42.9-3.4 1.9-7.5 6.6-9.1 9.3-3 4.3-4.2 9.1-4.3 13.6 0 0.6-0.1 1.3-0.1 1.9 0 3.8 0.7 7.4 2 10.7l0.3 0.9c1.1 2.5 2.5 4.9 4.2 7 3.8 5.2 8.4 9.7 9.8 12.8 1.3 3 0.8 5.2 0.2 6.3-1.2 1.7-2.2 3.1-2.2 3.1-2.2 3.1-4.1 5.3-5.8 7-2-6.4-5.1-9.7-8.2-11.2 0.8-2.4 3.7-12.4 0.3-16.9-3.6-4.9-8.5-5.2-8.9-5.3-0.4 0-2.5-0.4-2.7 0.3-0.2 0.6 0.7 0.8 0.7 0.8 2 0.5 7.5 1.9 8.8 6.1 1.1 3.7-2.2 12-2.9 13.9-3.8-0.1-6.8 1.5-6.8 1.5-1.6 0.5-1.3 1.2-1.3 1.2s0.2 0.4 1.3-0.1c1.4-0.5 5.5-0.5 5.5-0.5h0.1c-1 1.7-3.4 6.1-3.3 11.3 0 7.9 6.3 11.4 14.6 10.1 0 0.4 0.1 0.8 0.2 1.4 0.1 0.4 0.1 0.7 0.2 1 0.1 0.5 0.2 1.1 0.4 1.7 0.1 0.2 0.1 0.4 0.2 0.5 0 0.1 0.1 0.2 0.1 0.3 3 9.1 13.1 7.5 19.1 2.9 6.9-4.9 10.6-26.5-10-48.7zm-17.4 32.1c-1.8-1.9 0.2-8.6 1-10.9 4.1 2.9 4.9 8.8 5.1 11.5-2.9 1.4-4.9 0.6-6.1-0.6zm20.4 13.8c-4.4 0.8-7-3.3-7.9-6.9 6.6-3.7 13.1-11.3 14.2-12.5l0.2 0.1s-0.8 18.3-6.5 19.3z" fill="#2D6194"/>
		</g>
		<path d="m370.2 58.2h0.1l10.4-27.4h12v4.9l-2 0.2c-1.1 0.1-1.8 0.5-1.8 2.1l1.5 27.7 3.8 0.2v5.2h-14.6v-4.9l2.2-0.2c1-0.1 1.6-0.4 1.6-1.6l-1.2-21.4h-0.1l-9.3 24.2h-5.8l-9.2-23.9h-0.1l-1.2 22.5 3.9 0.2v5.2h-14.3v-4.9l2.2-0.2c0.9-0.1 1.5-0.7 1.5-1.6l1.6-28.2-3.7-0.2v-5.1h12.2l10.3 27.2z" fill="#5B5B5F"/>
		<path d="m420.5 48.1c0 9.3-10.1 10.9-17.3 11 0.2 3.9 2.3 7.2 7.4 7.2 3.6 0 6.2-1.6 7.6-2.7l2.3 4.9c-1 0.8-5 3.4-10.7 3.4-10.3 0-14.3-6.3-14.3-15.3s5-16.8 15-16.8c6.1-0.1 10 2.9 10 8.3zm-10.3-3.2c-4.8 0-7 4.7-7.2 9.1 4.5-0.1 10.8-1.1 10.8-5.8 0.1-2.2-1.4-3.3-3.6-3.3z" fill="#5B5B5F"/>
		<path d="m432.9 72.5c0 5.8-1.1 11.5-9.7 11.5-2.5 0-5.6-0.8-7.7-2.1l2.2-5c1.4 0.8 2.9 1.3 4.5 1.3 2.3 0 3.6-1.3 3.6-5.3v-25.4c0-1.3-0.4-1.7-1.5-1.8l-2.1-0.1v-5h10.8v31.9z" fill="#5B5B5F"/>
		<path d="m449 39.7c4.5 0 13.5 1.4 13.5 15.3 0 11.6-6.5 17-14.5 17-8.1 0-13.4-5.2-13.4-16.2 0-12.6 8.2-16.1 14.4-16.1zm6.1 16.3c0-6.8-1.6-11-6.5-11-4.8 0-6.7 4.1-6.7 9.9 0 5.6 0.8 11.7 6.6 11.7 4.8 0 6.6-4.3 6.6-10.6z" fill="#5B5B5F"/>
		<path d="m465 47.5c0-1.3-0.4-1.8-1.5-1.8l-2.5-0.2v-4.9h10.2v4.5c1.4-3 4.6-5.5 8.6-5.5 2 0 3.8 0.4 5.8 1.3v9l-5.6 0.4v-2.8c0-0.7-0.1-1.3-0.6-1.5s-1-0.3-1.6-0.3c-3.3 0-5.5 2.6-5.5 6.1v14.2l5.3 0.2v4.8h-16.2v-4.6l2-0.2c1.1-0.1 1.8-0.5 1.8-2v-16.7z" fill="#5B5B5F"/>
		<path d="m485 68.5c0-1.2 0.8-2.1 2-2.1 1.1 0 1.9 0.9 1.9 2.1s-0.8 2.1-2 2.1c-1.1 0-1.9-0.9-1.9-2.1z" fill="#6F90C6"/>
		<path d="m501.9 69.6c-0.8 0.4-2.4 0.9-4.6 0.9-4.8 0-7.9-3.3-7.9-8.1 0-4.9 3.4-8.5 8.6-8.5 1.7 0 3.2 0.4 4 0.9l-0.7 2.2c-0.7-0.4-1.8-0.8-3.4-0.8-3.6 0-5.6 2.7-5.6 6 0 3.7 2.4 6 5.5 6 1.7 0 2.7-0.4 3.6-0.8l0.5 2.2z" fill="#6F90C6"/>
		<path d="m519.1 62.1c0 5.9-4.1 8.5-7.9 8.5-4.3 0-7.6-3.2-7.6-8.2 0-5.3 3.5-8.4 7.9-8.4 4.5-0.1 7.6 3.3 7.6 8.1zm-13 0.2c0 3.5 2 6.1 4.8 6.1s4.8-2.6 4.8-6.2c0-2.7-1.3-6.1-4.8-6.1-3.4 0-4.8 3.2-4.8 6.2z" fill="#6F90C6"/>
		<path d="m521.2 54.3h2.4l0.1 2.6h0.1c0.9-1.5 2.4-2.9 5-2.9 2.1 0 3.8 1.3 4.5 3.2h0.1c0.5-0.9 1.1-1.6 1.8-2.1 1-0.7 2-1.1 3.5-1.1 2.1 0 5.3 1.4 5.3 6.9v9.3h-2.8v-9c0-3.1-1.1-4.9-3.4-4.9-1.7 0-2.9 1.2-3.5 2.6-0.1 0.4-0.2 0.9-0.2 1.4v9.8h-2.8v-9.5c0-2.5-1.1-4.3-3.3-4.3-1.8 0-3.1 1.4-3.6 2.9-0.2 0.4-0.2 0.9-0.2 1.4v9.6h-2.8v-15.9z" fill="#6F90C6"/>
		<path d="m133.4 36.1c-7.6 0-11.4 5.5-11.4 14.6 0 9.5 3.2 15.4 11.6 15.2 1.7 0 3.3-0.2 4.4-0.6s1.3-0.8 1.3-2v-4.8l6.2 0.4v10.5c-3.3 1.8-8.1 2.5-12 2.5-12.3 0-19-6.9-19-20.7 0-15.8 9.7-21.1 19-21.1 3.6 0 8.3 0.8 12 2.5v10.3l-6.2 0.4v-4.7c0-1.1-0.7-1.6-1.8-2-1.3-0.4-2.9-0.5-4.1-0.5z" fill="#5B5B5F"/>
		<path d="m161.4 39.3c4.5 0 13.5 1.4 13.5 15.3 0 11.6-6.5 17-14.5 17-8.1 0-13.5-5.2-13.5-16.2 0.1-12.6 8.2-16.1 14.5-16.1zm6.1 16.3c0-6.8-1.6-11-6.5-11-4.8 0-6.7 4.1-6.7 9.9 0 5.6 0.8 11.7 6.6 11.7 4.7 0 6.6-4.3 6.6-10.6z" fill="#5B5B5F"/>
		<path d="m282.4 64.3c0 1.3 0.4 1.7 1.5 1.8l1.9 0.1v4.8h-9.6v-3.5l-0.2-0.1c-1.9 2.7-5 4.4-8.3 4.4-8.5 0-12.1-6.1-12.1-14.7 0-10.7 5.1-17.4 16-17.4 2 0 6.4 0.5 10.8 2.1v22.5zm-7.1-18.6c-0.9-0.4-2.8-0.8-4.7-0.8-5.8 0-7.7 5.4-7.7 11.9 0 5 1.2 9.8 6.3 9.8 3.8 0 6.1-2.7 6.1-5.3v-15.6z" fill="#5B5B5F"/>
		<path d="m340.5 64.3c0 1.3 0.4 1.7 1.5 1.8l1.9 0.1v4.8h-9.6v-3.5l-0.2-0.1c-1.9 2.7-5 4.4-8.3 4.4-8.5 0-12.1-6.1-12.1-14.7 0-10.7 5.1-17.4 16-17.4 2 0 6.4 0.5 10.8 2.1v22.5zm-7.1-18.6c-0.9-0.4-2.8-0.8-4.7-0.8-5.8 0-7.7 5.4-7.7 11.9 0 5 1.2 9.8 6.3 9.8 3.8 0 6.1-2.7 6.1-5.3v-15.6z" fill="#5B5B5F"/>
			<path d="m243.5 39.7c-5.2 0-8.5 2.8-9.6 4.8v-3.9h-10.2v4.9l2.5 0.2c1.2 0 1.5 0.5 1.5 1.8v29.3c0 1.5-0.6 1.9-1.8 2l-2 0.2v4.6h10.7v-13.3c1.6 1 4.1 1.8 6.5 1.8 8 0 13.3-5.8 13.3-16.9 0.1-10.9-4.2-15.5-10.9-15.5zm-3.4 26.6c-1.6 0-3.8-0.5-5.3-1.5v-14c0-2.8 2.7-5.2 6.1-5.2 3.2 0 6.1 2.1 6.1 10.1 0 5.3-1.8 10.6-6.9 10.6z" fill="#5B5B5F"/>
			<path d="m306.5 39.7c-4 0-7.2 2.4-8.6 5.5v-4.5h-10.2v4.9l2.5 0.2c1.2 0.1 1.5 0.5 1.5 1.8v16.8c0 1.5-0.6 1.9-1.8 2l-2 0.2v4.6h11v-19.2c0-3.5 2.2-6.1 5.5-6.1 0.7 0 1.1 0.1 1.6 0.3s0.6 0.8 0.6 1.5v2.8l5.6-0.4v-9c-1.9-1-3.7-1.4-5.7-1.4z" fill="#5B5B5F"/>
			<path d="m222.3 66.1v-15.8c0-7.1-3.4-10.5-9.1-10.5-4 0-7.1 1.8-9.2 4.8-1.4-3.3-4.2-4.8-8.1-4.8-4 0-7.1 1.8-9.2 4.8v-3.9h-10.2v4.9l2.5 0.2c1.2 0.1 1.5 0.5 1.5 1.9v16.7h-0.1c0 1.5-0.6 1.9-1.8 2l-2 0.2v4.6h11v-19.8c0-3.1 1.6-6.1 5.9-6.1 3.9 0 4.2 2.8 4.2 6.5v12.5c0 1.5-0.6 1.9-1.8 2l-2 0.2v4.6h14.3v-4.8l-3.3-0.2v-14.6c0-3.6 1.8-6.2 5.9-6.2 3.9 0 4.2 2.8 4.2 6.5v12.5c-0.1 1.5-0.7 1.8-1.8 1.9l-2 0.2v4.6h14.4v-4.8l-3.3-0.1z" fill="#5B5B5F"/>
		<path d="m432.4 32.3c0-2.6-2.1-4.8-4.8-4.8-2.6 0-4.8 2.1-4.8 4.8 0 2.6 2.1 4.8 4.8 4.8 2.6 0 4.8-2.1 4.8-4.8z" fill="#5B5B5F"/>
</svg>
