<?xml version="1.0" encoding="utf-8"?>
<!-- Generator: Adobe Illustrator 16.0.0, SVG Export Plug-In . SVG Version: 6.00 Build 0)  -->
<!DOCTYPE svg PUBLIC "-//W3C//DTD SVG 1.1//EN" "http://www.w3.org/Graphics/SVG/1.1/DTD/svg11.dtd">
<svg version="1.1" id="Layer_1" xmlns="http://www.w3.org/2000/svg" xmlns:xlink="http://www.w3.org/1999/xlink" x="0px" y="0px"
	 width="280px" height="72px" viewBox="0 0 280 72" enable-background="new 0 0 280 72" xml:space="preserve">
<g>
	<g>
		<g>
			<g>
				<path fill="#5D91C9" d="M59.313,47.394c0,0-1.591-0.595-3.465-0.288c-0.499-0.875-2.63-4.769-2.333-6.656
					c0.338-2.133,2.977-3.164,3.915-3.561c0,0,0.409-0.149,0.283-0.433c-0.141-0.327-1.17,0.001-1.349,0.048
					c-0.203,0.052-2.579,0.533-4.057,3.178c-1.38,2.476,0.683,7.209,1.246,8.319c-1.42,0.953-2.708,2.758-3.3,6.049
					c-0.942-0.695-2.033-1.684-3.298-3.049c0,0-0.595-0.637-1.302-1.419c-1.901-2.053-0.886-4.144,0.724-10.346
					c0.056-0.217,0.107-0.447,0.157-0.684c0.582-1.583,0.901-3.294,0.901-5.078c0-8.119-6.583-14.699-14.7-14.699
					c-5.292,0-9.928,2.795-12.518,6.991c-1.503,2.117-2.063,4.521-2.147,6.742c-0.021,0.319-0.034,0.642-0.034,0.966
					c0,1.87,0.352,3.654,0.987,5.297c0.054,0.141,0.108,0.284,0.168,0.424c0.532,1.258,1.236,2.426,2.082,3.475
					c1.899,2.564,4.188,4.811,4.879,6.373c0.661,1.503,0.388,2.564,0.09,3.153c-0.588,0.85-1.08,1.534-1.08,1.534
					c-1.078,1.518-2.031,2.642-2.874,3.455c-1.016-3.188-2.525-4.81-4.061-5.57c0.417-1.173,1.846-6.134,0.153-8.407
					c-1.807-2.435-4.225-2.602-4.433-2.627c-0.186-0.021-1.246-0.212-1.345,0.127c-0.084,0.299,0.336,0.395,0.336,0.395
					c0.986,0.272,3.734,0.951,4.346,3.02c0.542,1.833-1.068,5.971-1.448,6.906c-1.897-0.062-3.398,0.735-3.398,0.735
					c-0.701,0.35-0.566,0.662-0.566,0.662s0.08,0.184,0.646-0.03c0.67-0.253,2.726-0.225,2.726-0.225
					c0.025,0,0.045,0.004,0.07,0.004c-0.511,0.845-1.668,3.037-1.662,5.631c0.011,3.907,3.105,5.638,7.228,5.038
					c0.156,1.716,1.197,8.033,7.938,7.019c6.366-0.961,7.285-6.45,7.812-10.876c1.265,4.034,3.065,8.562,8.795,8.481
					c6.817-0.097,7.027-6.272,6.959-7.991c4.166,0.06,7.01-2.056,6.512-5.934c-0.331-2.572-1.764-4.599-2.381-5.367
					c0.024-0.005,0.295-0.059,0.475-0.095c1.446-0.312,1.81-0.197,2.326-0.05c0.617,0.174,0.646-0.053,0.646-0.053
					S60.102,47.672,59.313,47.394 M17.317,58.382c-0.901-0.926,0.107-4.29,0.483-5.426c2.013,1.418,2.45,4.385,2.543,5.696
					C18.889,59.402,17.923,59.009,17.317,58.382 M27.474,65.278c-2.198,0.41-3.461-1.662-3.902-3.442
					c3.266-1.858,6.523-5.603,7.046-6.218l0.076,0.062C30.693,55.68,30.269,64.756,27.474,65.278 M46.477,62.54
					c-2.832-0.155-4.757-8.891-4.757-8.891l0.066-0.068c0.599,0.542,4.316,3.828,7.794,5.246
					C49.375,60.651,48.714,62.66,46.477,62.54 M55.336,54.592c-0.521,0.698-1.427,1.216-2.967,0.661
					c-0.077-1.315-0.03-4.312,1.783-5.979C54.67,50.351,56.106,53.556,55.336,54.592"/>
				<path fill="#006197" d="M26.88,35.167c0,1.531-1.247,2.773-2.781,2.773c-1.542,0-2.792-1.243-2.792-2.773
					c0-1.534,1.249-2.778,2.792-2.778C25.633,32.389,26.88,33.633,26.88,35.167"/>
				<path fill="#006197" d="M27.102,30.136c0,0.781-0.639,1.417-1.42,1.417c-0.785,0-1.421-0.636-1.421-1.417
					c0-0.782,0.636-1.418,1.421-1.418C26.462,28.718,27.102,29.354,27.102,30.136"/>
				<path fill="#006197" d="M23.423,30.86c0,0.386-0.314,0.697-0.699,0.697c-0.384,0-0.698-0.311-0.698-0.697
					c0-0.38,0.314-0.693,0.698-0.693C23.108,30.167,23.423,30.479,23.423,30.86"/>
				<g opacity="0.3">
					<g>
						<defs>
							<rect id="SVGID_1_" x="11.86" y="21.125" width="21.774" height="47.439"/>
						</defs>
						<clipPath id="SVGID_2_">
							<use xlink:href="#SVGID_1_"  overflow="visible"/>
						</clipPath>
						<path clip-path="url(#SVGID_2_)" fill="#006197" d="M25.943,42.447c-5.953-6.379-3.035-15.878-1.185-21.323
							c-1.688,0.927-3.715,3.275-4.543,4.616c-1.503,2.117-2.065,4.522-2.147,6.742c-0.02,0.32-0.034,0.642-0.034,0.966
							c0,1.869,0.352,3.654,0.988,5.298c0.053,0.141,0.105,0.283,0.167,0.423c0.532,1.258,1.236,2.425,2.082,3.478
							c1.897,2.562,4.188,4.81,4.879,6.372c0.661,1.504,0.388,2.563,0.089,3.151c-0.587,0.85-1.079,1.537-1.079,1.537
							c-1.079,1.518-2.031,2.639-2.874,3.451c-1.016-3.187-2.525-4.809-4.06-5.567c0.417-1.176,1.845-6.135,0.154-8.41
							c-1.809-2.434-4.227-2.6-4.435-2.626c-0.186-0.022-1.246-0.212-1.345,0.129c-0.086,0.297,0.338,0.394,0.338,0.394
							c0.984,0.269,3.732,0.949,4.344,3.02c0.542,1.833-1.068,5.972-1.449,6.904c-1.898-0.06-3.397,0.735-3.397,0.735
							c-0.701,0.351-0.566,0.663-0.566,0.663s0.078,0.184,0.646-0.031c0.671-0.252,2.726-0.223,2.726-0.223
							c0.025,0,0.047,0.002,0.07,0.003c-0.511,0.843-1.667,3.038-1.662,5.632c0.011,3.908,3.105,5.639,7.229,5.038
							c0.016,0.182,0.044,0.423,0.086,0.695c0.026,0.177,0.061,0.343,0.092,0.515c0.052,0.265,0.121,0.547,0.206,0.843
							c0.026,0.087,0.051,0.178,0.08,0.262c0.017,0.054,0.035,0.108,0.053,0.166c1.478,4.499,6.501,3.7,9.507,1.458
							C34.349,64.185,36.214,53.452,25.943,42.447 M17.317,58.356c-0.901-0.927,0.107-4.291,0.482-5.428
							c2.014,1.418,2.451,4.386,2.544,5.697C18.889,59.376,17.923,58.981,17.317,58.356 M27.475,65.252
							c-2.201,0.409-3.462-1.662-3.903-3.442c3.266-1.859,6.523-5.601,7.046-6.216l0.076,0.06
							C30.693,55.653,30.267,64.731,27.475,65.252"/>
					</g>
				</g>
			</g>
			<g>
				<defs>
					<path id="SVGID_3_" d="M7.475,65.08c-0.185,0.688,0.524,3.392,0.524,3.392c1.183,0.663,3.205,0.875,3.205,0.875
						c1.444-0.505,2.874-2.496,2.874-2.496l-0.485-2.858L9.97,62.879L7.475,65.08z"/>
				</defs>
				<clipPath id="SVGID_4_">
					<use xlink:href="#SVGID_3_"  overflow="visible"/>
				</clipPath>
				
					<radialGradient id="SVGID_5_" cx="-54.8198" cy="94.6689" r="0.6874" gradientTransform="matrix(11.3194 0 0 -11.4248 630.3829 1144.6423)" gradientUnits="userSpaceOnUse">
					<stop  offset="0" style="stop-color:#FFFFFF"/>
					<stop  offset="0.4066" style="stop-color:#FFFFFF"/>
					<stop  offset="0.5737" style="stop-color:#FBFBFB"/>
					<stop  offset="0.736" style="stop-color:#F0EFEF"/>
					<stop  offset="0.8958" style="stop-color:#DEDCDC"/>
					<stop  offset="1" style="stop-color:#CECBCB"/>
				</radialGradient>
				<rect x="7.29" y="62.879" clip-path="url(#SVGID_4_)" fill="url(#SVGID_5_)" width="6.788" height="6.468"/>
			</g>
			<g>
				<defs>
					<path id="SVGID_6_" d="M3.885,60.529c-0.1,0.465,0.295,3.089,0.295,3.089c0.758,0.687,3.171,1.415,3.171,1.415L7.5,65.071
						c0.184-0.133,2.504-2.125,2.504-2.125l-0.307-3.842c-1.07-0.688-2.824-0.9-2.824-0.9C5.277,58.39,3.885,60.529,3.885,60.529"/>
				</defs>
				<clipPath id="SVGID_7_">
					<use xlink:href="#SVGID_6_"  overflow="visible"/>
				</clipPath>
				
					<radialGradient id="SVGID_8_" cx="-56.2705" cy="94.2041" r="0.6849" gradientTransform="matrix(15.5625 0 0 -15.7074 887.895 1541.1841)" gradientUnits="userSpaceOnUse">
					<stop  offset="0" style="stop-color:#FFFFFF"/>
					<stop  offset="0.5604" style="stop-color:#FFFFFF"/>
					<stop  offset="0.6339" style="stop-color:#FBFAFA"/>
					<stop  offset="0.7192" style="stop-color:#EEECEC"/>
					<stop  offset="0.8102" style="stop-color:#D9D5D5"/>
					<stop  offset="0.9011" style="stop-color:#BDB6B6"/>
					<stop  offset="1" style="stop-color:#BDB6B6"/>
				</radialGradient>
				<rect x="3.785" y="58.204" clip-path="url(#SVGID_7_)" fill="url(#SVGID_8_)" width="6.219" height="6.867"/>
			</g>
			<g>
				<defs>
					<path id="SVGID_9_" d="M9.697,59.104l0.263,3.854l0.197,0.076l3.36,1.006c1.806-2.166,1.402-3.135,1.402-3.135
						c0.13-1.321-2.188-2.937-2.188-2.937C10.797,58.154,9.697,59.104,9.697,59.104"/>
				</defs>
				<clipPath id="SVGID_10_">
					<use xlink:href="#SVGID_9_"  overflow="visible"/>
				</clipPath>
				
					<radialGradient id="SVGID_11_" cx="-54.8315" cy="94.8682" r="0.6872" gradientTransform="matrix(10.7059 0 0 -10.8055 604.0157 1090.7407)" gradientUnits="userSpaceOnUse">
					<stop  offset="0" style="stop-color:#BCB5B5"/>
					<stop  offset="0.1648" style="stop-color:#BCB5B5"/>
					<stop  offset="0.7637" style="stop-color:#020101"/>
					<stop  offset="1" style="stop-color:#020101"/>
				</radialGradient>
				<rect x="9.697" y="57.97" clip-path="url(#SVGID_10_)" fill="url(#SVGID_11_)" width="5.625" height="6.071"/>
			</g>
			<g>
				<defs>
					<path id="SVGID_12_" d="M11.222,69.327c0,0,0.004,0.014,0.012,0.034c0.084,0.222,0.451,1.899,1.158,1.999
						c0,0,4.107-0.825,3.896-3.948c-0.444,0.039-1.239,0.088-2.21-0.571C14.078,66.841,12.432,68.965,11.222,69.327"/>
				</defs>
				<clipPath id="SVGID_13_">
					<use xlink:href="#SVGID_12_"  overflow="visible"/>
				</clipPath>
				
					<radialGradient id="SVGID_14_" cx="-50.0142" cy="96.377" r="0.688" gradientTransform="matrix(5.6919 0 0 -5.7449 297.17 618.9805)" gradientUnits="userSpaceOnUse">
					<stop  offset="0" style="stop-color:#BCB5B5"/>
					<stop  offset="0.9011" style="stop-color:#020101"/>
					<stop  offset="1" style="stop-color:#020101"/>
				</radialGradient>
				<rect x="11.222" y="66.841" clip-path="url(#SVGID_13_)" fill="url(#SVGID_14_)" width="5.277" height="4.52"/>
			</g>
			<g>
				<defs>
					<path id="SVGID_15_" d="M14.963,61.006c0.157,1.346-1.395,2.98-1.395,2.98l0.509,2.864c0,0,0.651,0.428,1.245,0.562
						c0.391,0.092,0.955-0.019,0.955-0.019c3.665-3.581,0.861-6.252,0.861-6.252c-0.328-0.132-0.921-0.161-1.404-0.161
						C15.307,60.98,14.963,61.006,14.963,61.006"/>
				</defs>
				<clipPath id="SVGID_16_">
					<use xlink:href="#SVGID_15_"  overflow="visible"/>
				</clipPath>
				
					<radialGradient id="SVGID_17_" cx="-56.1748" cy="94.3086" r="0.6882" gradientTransform="matrix(14.7705 0 0 -14.9081 845.1034 1469.0417)" gradientUnits="userSpaceOnUse">
					<stop  offset="0" style="stop-color:#FFFFFF"/>
					<stop  offset="0.2308" style="stop-color:#FFFFFF"/>
					<stop  offset="1" style="stop-color:#A29A9A"/>
				</radialGradient>
				<rect x="13.568" y="60.98" clip-path="url(#SVGID_16_)" fill="url(#SVGID_17_)" width="6.374" height="6.523"/>
			</g>
			<g>
				<defs>
					<path id="SVGID_18_" d="M1.59,60.767c-0.524,1.928,0.078,4.356,0.078,4.356c0.366,0.606,1.543,1.083,1.543,1.083
						c-0.315-1.399,0.969-2.588,0.969-2.588c-0.205-0.983-0.289-3.037-0.289-3.037c0.026-0.236-1.308-1.082-1.308-1.082
						C2.347,59.684,1.59,60.767,1.59,60.767"/>
				</defs>
				<clipPath id="SVGID_19_">
					<use xlink:href="#SVGID_18_"  overflow="visible"/>
				</clipPath>
				
					<radialGradient id="SVGID_20_" cx="-56.6284" cy="94.123" r="0.6883" gradientTransform="matrix(17.4639 0 0 -17.6265 999.7406 1721.9841)" gradientUnits="userSpaceOnUse">
					<stop  offset="0" style="stop-color:#FFFFFF"/>
					<stop  offset="0.5659" style="stop-color:#FFFFFF"/>
					<stop  offset="0.7296" style="stop-color:#E6E5E5"/>
					<stop  offset="0.8887" style="stop-color:#D4D2D2"/>
					<stop  offset="1" style="stop-color:#CECBCB"/>
				</radialGradient>
				<rect x="1.066" y="59.499" clip-path="url(#SVGID_19_)" fill="url(#SVGID_20_)" width="3.114" height="6.707"/>
			</g>
			<g>
				<defs>
					<path id="SVGID_21_" d="M9.999,54.729c0,0-1.882,0.083-2.942,0.928c0,0-0.587,0.615-0.287,2.537c0,0,1.606,0.176,2.927,0.91
						c0,0,1.394-1.103,3.035-1.135c0,0,0.446-1.421,0.189-2.013c0,0-0.862-1.276-2.402-1.276
						C10.353,54.681,10.18,54.694,9.999,54.729"/>
				</defs>
				<clipPath id="SVGID_22_">
					<use xlink:href="#SVGID_21_"  overflow="visible"/>
				</clipPath>
				
					<radialGradient id="SVGID_23_" cx="-55.0913" cy="94.4795" r="0.6874" gradientTransform="matrix(11.7635 0 0 -11.8731 659.9897 1181.3376)" gradientUnits="userSpaceOnUse">
					<stop  offset="0" style="stop-color:#FFFFFF"/>
					<stop  offset="0.2527" style="stop-color:#FFFFFF"/>
					<stop  offset="0.4983" style="stop-color:#FDFDFD"/>
					<stop  offset="0.6249" style="stop-color:#F6F5F5"/>
					<stop  offset="0.7243" style="stop-color:#EAE8E8"/>
					<stop  offset="0.8095" style="stop-color:#D9D5D5"/>
					<stop  offset="0.885" style="stop-color:#C3BCBC"/>
					<stop  offset="0.9011" style="stop-color:#BDB6B6"/>
					<stop  offset="1" style="stop-color:#BDB6B6"/>
				</radialGradient>
				<rect x="6.47" y="54.681" clip-path="url(#SVGID_22_)" fill="url(#SVGID_23_)" width="6.708" height="4.424"/>
			</g>
			<g>
				<defs>
					<path id="SVGID_24_" d="M2.583,59.521l1.302,1.009c1.56-2.203,2.885-2.335,2.885-2.335c-0.181-2.017,0.339-2.549,0.339-2.549
						l-1.588-0.028C3.026,56.894,2.583,59.521,2.583,59.521"/>
				</defs>
				<clipPath id="SVGID_25_">
					<use xlink:href="#SVGID_24_"  overflow="visible"/>
				</clipPath>
				
					<radialGradient id="SVGID_26_" cx="-49.4985" cy="95.8926" r="0.6884" gradientTransform="matrix(5.6316 0 0 -5.6841 286.1652 603.8448)" gradientUnits="userSpaceOnUse">
					<stop  offset="0" style="stop-color:#BCB5B5"/>
					<stop  offset="0.9011" style="stop-color:#020101"/>
					<stop  offset="1" style="stop-color:#020101"/>
				</radialGradient>
				<rect x="2.583" y="55.617" clip-path="url(#SVGID_25_)" fill="url(#SVGID_26_)" width="4.526" height="4.912"/>
			</g>
			<g>
				<defs>
					<path id="SVGID_27_" d="M5.583,69.182c0,0,0.649,0.203,2.452-0.688c0,0-0.835-2.994-0.553-3.357L7.5,65.071
						c0,0-2.658-0.874-3.32-1.453C4.18,63.618,1.17,66.292,5.583,69.182"/>
				</defs>
				<clipPath id="SVGID_28_">
					<use xlink:href="#SVGID_27_"  overflow="visible"/>
				</clipPath>
				
					<radialGradient id="SVGID_29_" cx="-51.0186" cy="95.8545" r="0.6862" gradientTransform="matrix(6.5448 0 0 -6.6057 342.2954 697.0607)" gradientUnits="userSpaceOnUse">
					<stop  offset="0" style="stop-color:#BCB5B5"/>
					<stop  offset="0.9011" style="stop-color:#020101"/>
					<stop  offset="1" style="stop-color:#020101"/>
				</radialGradient>
				<rect x="1.17" y="63.618" clip-path="url(#SVGID_28_)" fill="url(#SVGID_29_)" width="6.865" height="5.767"/>
			</g>
			<g>
				<defs>
					<path id="SVGID_30_" d="M12.959,56.054c0,0,0.191,0.897-0.228,1.916c0,0,2.329,1.593,2.25,3.036c0,0,1.118-0.141,2.157,0.136
						c0,0,2.5-2.096-1.981-4.95c-0.3-0.188-0.926-0.494-1.46-0.494C13.398,55.697,13.13,55.792,12.959,56.054"/>
				</defs>
				<clipPath id="SVGID_31_">
					<use xlink:href="#SVGID_30_"  overflow="visible"/>
				</clipPath>
				
					<radialGradient id="SVGID_32_" cx="-54.8081" cy="94.6514" r="0.6883" gradientTransform="matrix(10.8637 0 0 -10.9649 610.0767 1098.8782)" gradientUnits="userSpaceOnUse">
					<stop  offset="0" style="stop-color:#FFFFFF"/>
					<stop  offset="0.3901" style="stop-color:#FFFFFF"/>
					<stop  offset="0.5331" style="stop-color:#FCFCFC"/>
					<stop  offset="0.644" style="stop-color:#F3F2F2"/>
					<stop  offset="0.7442" style="stop-color:#E4E2E2"/>
					<stop  offset="0.8374" style="stop-color:#D0CBCB"/>
					<stop  offset="0.9011" style="stop-color:#BDB6B6"/>
					<stop  offset="1" style="stop-color:#BDB6B6"/>
				</radialGradient>
				<rect x="12.731" y="55.697" clip-path="url(#SVGID_31_)" fill="url(#SVGID_32_)" width="6.907" height="5.444"/>
			</g>
			<g>
				<defs>
					<path id="SVGID_33_" d="M7.057,71.045c-1.243-0.906-1.474-1.863-1.474-1.863c-2.373-1.583-2.385-3.03-2.385-3.03
						c-0.786-0.237-1.531-1.028-1.531-1.028C3.493,70.172,7.057,71.045,7.057,71.045"/>
				</defs>
				<clipPath id="SVGID_34_">
					<use xlink:href="#SVGID_33_"  overflow="visible"/>
				</clipPath>
				
					<radialGradient id="SVGID_35_" cx="-57.7441" cy="93.8105" r="0.6885" gradientTransform="matrix(26.1094 0 0 -26.3525 1520.4207 2536.2168)" gradientUnits="userSpaceOnUse">
					<stop  offset="0" style="stop-color:#FFFFFF"/>
					<stop  offset="0.1648" style="stop-color:#FFFFFF"/>
					<stop  offset="1" style="stop-color:#C3C4CA"/>
				</radialGradient>
				<rect x="1.667" y="65.123" clip-path="url(#SVGID_34_)" fill="url(#SVGID_35_)" width="5.39" height="5.922"/>
			</g>
			<g>
				<defs>
					<path id="SVGID_36_" d="M5.583,69.182c0,0,0.147,1.052,1.355,1.829c0.358,0.233,2.593,0.915,5.375,0.347
						c0,0-0.384-0.296-0.542-0.591c-0.316-0.591-0.301-0.529-0.538-1.405l0.004-0.021c0,0-2.174-0.154-3.208-0.891
						C8.03,68.45,6.389,69.363,5.583,69.182"/>
				</defs>
				<clipPath id="SVGID_37_">
					<use xlink:href="#SVGID_36_"  overflow="visible"/>
				</clipPath>
				
					<radialGradient id="SVGID_38_" cx="-53.7217" cy="95.168" r="0.6891" gradientTransform="matrix(9.3492 0 0 -9.4362 511.4905 964.6547)" gradientUnits="userSpaceOnUse">
					<stop  offset="0" style="stop-color:#FFFFFF"/>
					<stop  offset="0.4231" style="stop-color:#FFFFFF"/>
					<stop  offset="1" style="stop-color:#A29A9A"/>
				</radialGradient>
				<rect x="5.583" y="68.45" clip-path="url(#SVGID_37_)" fill="url(#SVGID_38_)" width="6.73" height="3.476"/>
			</g>
			<g>
				<defs>
					<path id="SVGID_39_" d="M16.288,67.394c0,0,0.322,1.513-1.286,2.757c0,0,2.921-1.879,3.53-5.483l-0.55-0.02
						C17.982,64.647,18.009,65.744,16.288,67.394"/>
				</defs>
				<clipPath id="SVGID_40_">
					<use xlink:href="#SVGID_39_"  overflow="visible"/>
				</clipPath>
				
					<radialGradient id="SVGID_41_" cx="-45.627" cy="98.043" r="0.6876" gradientTransform="matrix(3.8328 0 0 -3.8685 190.7999 445.3255)" gradientUnits="userSpaceOnUse">
					<stop  offset="0" style="stop-color:#FFFFFF"/>
					<stop  offset="0.4231" style="stop-color:#FFFFFF"/>
					<stop  offset="1" style="stop-color:#D7D9DD"/>
				</radialGradient>
				<rect x="15.002" y="64.647" clip-path="url(#SVGID_40_)" fill="url(#SVGID_41_)" width="3.53" height="5.503"/>
			</g>
			<g>
				<defs>
					<path id="SVGID_42_" d="M10.057,54.014c-0.194,0.178-0.058,0.716-0.058,0.716c1.922-0.397,2.96,1.324,2.96,1.324
						c0.394-0.653,1.825-0.021,1.825-0.021c0.335,0.141,0.414-0.036,0.414-0.036c-2.06-1.898-4.643-1.983-5.078-1.983
						C10.079,54.014,10.057,54.014,10.057,54.014"/>
				</defs>
				<clipPath id="SVGID_43_">
					<use xlink:href="#SVGID_42_"  overflow="visible"/>
				</clipPath>
				
					<radialGradient id="SVGID_44_" cx="-36.7681" cy="99.085" r="0.6884" gradientTransform="matrix(2.4268 0 0 -2.4494 101.966 298.966)" gradientUnits="userSpaceOnUse">
					<stop  offset="0" style="stop-color:#BCB5B5"/>
					<stop  offset="0.1648" style="stop-color:#BCB5B5"/>
					<stop  offset="0.7637" style="stop-color:#020101"/>
					<stop  offset="1" style="stop-color:#020101"/>
				</radialGradient>
				<rect x="9.863" y="54.014" clip-path="url(#SVGID_43_)" fill="url(#SVGID_44_)" width="5.335" height="2.16"/>
			</g>
			<g>
				<defs>
					<path id="SVGID_45_" d="M5.568,55.613l1.541,0.032c0,0,0.807-0.479,1.515-0.677c0.391-0.066,0.821-0.178,1.375-0.239
						l0.013-0.746C7.059,54.104,5.568,55.613,5.568,55.613"/>
				</defs>
				<clipPath id="SVGID_46_">
					<use xlink:href="#SVGID_45_"  overflow="visible"/>
				</clipPath>
				
					<radialGradient id="SVGID_47_" cx="-51.8501" cy="95.2686" r="0.6867" gradientTransform="matrix(7.2523 0 0 -7.3198 383.8699 756.0248)" gradientUnits="userSpaceOnUse">
					<stop  offset="0" style="stop-color:#FFFFFF"/>
					<stop  offset="0.4984" style="stop-color:#FDFDFD"/>
					<stop  offset="0.6778" style="stop-color:#F6F6F7"/>
					<stop  offset="0.8058" style="stop-color:#EBEBED"/>
					<stop  offset="0.9085" style="stop-color:#DADADE"/>
					<stop  offset="0.9961" style="stop-color:#C4C5CB"/>
					<stop  offset="1" style="stop-color:#C3C4CA"/>
				</radialGradient>
				<rect x="5.568" y="53.983" clip-path="url(#SVGID_46_)" fill="url(#SVGID_47_)" width="4.443" height="1.662"/>
			</g>
			<g>
				<defs>
					<path id="SVGID_48_" d="M1.59,60.767l0.993-1.246c0,0,0.027-2.172,2.904-3.962C5.487,55.559,3.264,56.067,1.59,60.767"/>
				</defs>
				<clipPath id="SVGID_49_">
					<use xlink:href="#SVGID_48_"  overflow="visible"/>
				</clipPath>
				
					<linearGradient id="SVGID_50_" gradientUnits="userSpaceOnUse" x1="-49.0923" y1="95.8545" x2="-48.4043" y2="95.8545" gradientTransform="matrix(5.6633 0 0 -5.6633 279.6166 601.0145)">
					<stop  offset="0" style="stop-color:#FFFFFF"/>
					<stop  offset="1" style="stop-color:#9B999E"/>
				</linearGradient>
				<rect x="1.59" y="55.559" clip-path="url(#SVGID_49_)" fill="url(#SVGID_50_)" width="3.897" height="5.208"/>
			</g>
			<g>
				<defs>
					<path id="SVGID_51_" d="M17.571,59.077c0,0,0.576,1.097-0.432,2.064c0,0,1.464,1.553,0.844,3.506l0.55,0.02
						c0,0,0.606-3.46-0.987-6.145c0,0-0.028-0.025-0.05-0.025C17.452,58.497,17.419,58.584,17.571,59.077"/>
				</defs>
				<clipPath id="SVGID_52_">
					<use xlink:href="#SVGID_51_"  overflow="visible"/>
				</clipPath>
				
					<radialGradient id="SVGID_53_" cx="-48.772" cy="96.4658" r="0.6885" gradientTransform="matrix(4.9243 0 0 -4.9701 255.8828 540.1586)" gradientUnits="userSpaceOnUse">
					<stop  offset="0" style="stop-color:#BCB5B5"/>
					<stop  offset="0.9011" style="stop-color:#020101"/>
					<stop  offset="1" style="stop-color:#020101"/>
				</radialGradient>
				<rect x="17.139" y="58.497" clip-path="url(#SVGID_52_)" fill="url(#SVGID_53_)" width="2" height="6.17"/>
			</g>
			<g>
				<defs>
					<path id="SVGID_54_" d="M1.638,60.646c0,0,1.204-3.784,3.93-5.032c0,0,1.326-1.146,3.268-1.489
						C8.836,54.124,3.479,54.548,1.638,60.646"/>
				</defs>
				<clipPath id="SVGID_55_">
					<use xlink:href="#SVGID_54_"  overflow="visible"/>
				</clipPath>
				
					<radialGradient id="SVGID_56_" cx="-57.5488" cy="93.6631" r="0.6927" gradientTransform="matrix(24.38 0 0 -24.607 1413.502 2358.1511)" gradientUnits="userSpaceOnUse">
					<stop  offset="0" style="stop-color:#FFFFFF"/>
					<stop  offset="1" style="stop-color:#9B999E"/>
				</radialGradient>
				<rect x="1.638" y="54.124" clip-path="url(#SVGID_55_)" fill="url(#SVGID_56_)" width="7.198" height="6.521"/>
			</g>
			<g>
				<defs>
					<path id="SVGID_57_" d="M6.309,56.196c0,0-1.078,0.465-0.72,1.45c0.154,0.415-0.424,1.177-0.341,1.117
						c0.391-0.278,0.843-0.493,0.843-0.493l0.527-0.297c0,0-0.05-1.152,0.047-1.514c0.046-0.165,0-0.284-0.195-0.284
						C6.424,56.176,6.37,56.183,6.309,56.196"/>
				</defs>
				<clipPath id="SVGID_58_">
					<use xlink:href="#SVGID_57_"  overflow="visible"/>
				</clipPath>
				
					<linearGradient id="SVGID_59_" gradientUnits="userSpaceOnUse" x1="-78.5981" y1="78.8096" x2="-77.9096" y2="78.8096" gradientTransform="matrix(-2.3767 -0.9982 -0.9982 2.3767 -101.1898 -207.8339)">
					<stop  offset="0" style="stop-color:#AFAEB4"/>
					<stop  offset="1" style="stop-color:#434041"/>
				</linearGradient>
				<polygon clip-path="url(#SVGID_58_)" fill="url(#SVGID_59_)" points="6.479,59.374 4.22,58.427 5.397,55.624 7.656,56.574 				
					"/>
			</g>
			<g>
				<defs>
					<path id="SVGID_60_" d="M9.938,59.214l0.022,1.822c0.05-0.558,0.13-1.47,0.457-1.844c0.353-0.402,1.761-1.02,1.761-1.02
						C11.167,58.348,9.938,59.214,9.938,59.214"/>
				</defs>
				<clipPath id="SVGID_61_">
					<use xlink:href="#SVGID_60_"  overflow="visible"/>
				</clipPath>
				
					<linearGradient id="SVGID_62_" gradientUnits="userSpaceOnUse" x1="-36.7144" y1="123.7939" x2="-36.026" y2="123.7939" gradientTransform="matrix(1.2262 0.9432 0.9432 -1.2262 -61.7355 245.2209)">
					<stop  offset="0" style="stop-color:#AFAEB4"/>
					<stop  offset="0.5934" style="stop-color:#1F140F"/>
					<stop  offset="1" style="stop-color:#1F140F"/>
				</linearGradient>
				<polygon clip-path="url(#SVGID_61_)" fill="url(#SVGID_62_)" points="10.771,57.09 13.563,59.237 11.345,62.12 8.555,59.972 
									"/>
			</g>
			<g>
				<defs>
					<path id="SVGID_63_" d="M7.475,65.08c0,0,2.396-1.988,2.484-2.121C9.959,62.959,7.555,64.952,7.475,65.08"/>
				</defs>
				<clipPath id="SVGID_64_">
					<use xlink:href="#SVGID_63_"  overflow="visible"/>
				</clipPath>
				
					<radialGradient id="SVGID_65_" cx="-48.3037" cy="96.7852" r="0.6875" gradientTransform="matrix(5.0418 0 0 -5.0887 251.1696 557.6735)" gradientUnits="userSpaceOnUse">
					<stop  offset="0" style="stop-color:#FFFFFF"/>
					<stop  offset="0.2308" style="stop-color:#FFFFFF"/>
					<stop  offset="1" style="stop-color:#A29A9A"/>
				</radialGradient>
				<rect x="7.475" y="62.959" clip-path="url(#SVGID_64_)" fill="url(#SVGID_65_)" width="2.484" height="2.121"/>
			</g>
			<g>
				<defs>
					<path id="SVGID_66_" d="M9.697,59.104c-1.383-0.686-2.927-0.91-2.927-0.91C8.401,58.536,9.697,59.104,9.697,59.104"/>
				</defs>
				<clipPath id="SVGID_67_">
					<use xlink:href="#SVGID_66_"  overflow="visible"/>
				</clipPath>
				
					<radialGradient id="SVGID_68_" cx="-52.6143" cy="95.1553" r="0.6875" gradientTransform="matrix(7.8115 0 0 -7.8842 422.1004 809.6316)" gradientUnits="userSpaceOnUse">
					<stop  offset="0" style="stop-color:#FFFFFF"/>
					<stop  offset="0.0385" style="stop-color:#FFFFFF"/>
					<stop  offset="0.2244" style="stop-color:#FBFAFA"/>
					<stop  offset="0.4405" style="stop-color:#EEECEC"/>
					<stop  offset="0.6708" style="stop-color:#D9D5D5"/>
					<stop  offset="0.9011" style="stop-color:#BDB6B6"/>
					<stop  offset="1" style="stop-color:#BDB6B6"/>
				</radialGradient>
				<rect x="6.77" y="58.194" clip-path="url(#SVGID_67_)" fill="url(#SVGID_68_)" width="2.927" height="0.91"/>
			</g>
			<g>
				<defs>
					<path id="SVGID_69_" d="M12.731,57.97c0,0,0.417-0.744,0.228-1.916C12.959,56.054,13.019,57.291,12.731,57.97"/>
				</defs>
				<clipPath id="SVGID_70_">
					<use xlink:href="#SVGID_69_"  overflow="visible"/>
				</clipPath>
				
					<radialGradient id="SVGID_71_" cx="-39.1074" cy="98.4248" r="0.6904" gradientTransform="matrix(2.702 0 0 -2.7272 118.3029 324.3598)" gradientUnits="userSpaceOnUse">
					<stop  offset="0" style="stop-color:#FFFFFF"/>
					<stop  offset="0.0385" style="stop-color:#FFFFFF"/>
					<stop  offset="0.2244" style="stop-color:#FBFAFA"/>
					<stop  offset="0.4405" style="stop-color:#EEECEC"/>
					<stop  offset="0.6708" style="stop-color:#D9D5D5"/>
					<stop  offset="0.9011" style="stop-color:#BDB6B6"/>
					<stop  offset="1" style="stop-color:#BDB6B6"/>
				</radialGradient>
				<rect x="12.731" y="56.054" clip-path="url(#SVGID_70_)" fill="url(#SVGID_71_)" width="0.417" height="1.916"/>
			</g>
			<g>
				<defs>
					<path id="SVGID_72_" d="M14.919,60.906c0,0,1.07,0.025,2.22,0.235c0,0-1.173-0.243-1.998-0.243
						C15.064,60.898,14.989,60.901,14.919,60.906"/>
				</defs>
				<clipPath id="SVGID_73_">
					<use xlink:href="#SVGID_72_"  overflow="visible"/>
				</clipPath>
				
					<linearGradient id="SVGID_74_" gradientUnits="userSpaceOnUse" x1="-52.4531" y1="96.4521" x2="-51.7648" y2="96.4521" gradientTransform="matrix(7.0166 0.9008 0.9008 -7.0166 295.9058 784.8744)">
					<stop  offset="0" style="stop-color:#FFFFFF"/>
					<stop  offset="1" style="stop-color:#1F140F"/>
				</linearGradient>
				<polygon clip-path="url(#SVGID_73_)" fill="url(#SVGID_74_)" points="14.955,60.616 17.17,60.902 17.103,61.424 14.89,61.139 
									"/>
			</g>
			<g>
				<defs>
					<path id="SVGID_75_" d="M14.078,66.851c-0.014-0.233-0.561-2.81-0.561-2.81C13.561,64.476,14.078,66.851,14.078,66.851"/>
				</defs>
				<clipPath id="SVGID_76_">
					<use xlink:href="#SVGID_75_"  overflow="visible"/>
				</clipPath>
				
					<linearGradient id="SVGID_77_" gradientUnits="userSpaceOnUse" x1="-56.8481" y1="77.6084" x2="-56.1599" y2="77.6084" gradientTransform="matrix(-0.5102 -3.6833 -3.6833 0.5102 270.7521 -182.7253)">
					<stop  offset="0" style="stop-color:#FFFFFF"/>
					<stop  offset="1" style="stop-color:#AFAEB4"/>
				</linearGradient>
				<polygon clip-path="url(#SVGID_76_)" fill="url(#SVGID_77_)" points="13.527,66.925 13.134,64.094 14.068,63.963 14.461,66.798 
									"/>
			</g>
			<g>
				<defs>
					<path id="SVGID_78_" d="M16.288,67.412c1.738-1.724,1.694-2.765,1.694-2.765C17.944,65.703,16.288,67.412,16.288,67.412"/>
				</defs>
				<clipPath id="SVGID_79_">
					<use xlink:href="#SVGID_78_"  overflow="visible"/>
				</clipPath>
				
					<linearGradient id="SVGID_80_" gradientUnits="userSpaceOnUse" x1="-70.3916" y1="99.5879" x2="-69.7034" y2="99.5879" gradientTransform="matrix(-2.9213 3.5771 3.5771 2.9213 -544.0252 26.063)">
					<stop  offset="0" style="stop-color:#FFFFFF"/>
					<stop  offset="1" style="stop-color:#AFAEB4"/>
				</linearGradient>
				<polygon clip-path="url(#SVGID_79_)" fill="url(#SVGID_80_)" points="19.381,65.754 17.331,68.264 14.934,66.307 16.984,63.796 
									"/>
			</g>
			<g>
				<defs>
					<path id="SVGID_81_" d="M11.222,69.327c0,0-2.185-0.229-3.192-0.877C8.03,68.45,8.824,69.109,11.222,69.327"/>
				</defs>
				<clipPath id="SVGID_82_">
					<use xlink:href="#SVGID_81_"  overflow="visible"/>
				</clipPath>
				
					<linearGradient id="SVGID_83_" gradientUnits="userSpaceOnUse" x1="-47.3335" y1="97.5049" x2="-46.6455" y2="97.5049" gradientTransform="matrix(4.6378 0 0 -4.6378 227.5528 521.0966)">
					<stop  offset="0" style="stop-color:#FFFFFF"/>
					<stop  offset="1" style="stop-color:#9B999E"/>
				</linearGradient>
				<rect x="8.03" y="68.45" clip-path="url(#SVGID_82_)" fill="url(#SVGID_83_)" width="3.192" height="0.877"/>
			</g>
			<g>
				<defs>
					<path id="SVGID_84_" d="M4.18,63.618c0,0-0.242-1.464-0.295-3.089C3.885,60.529,3.828,62.321,4.18,63.618"/>
				</defs>
				<clipPath id="SVGID_85_">
					<use xlink:href="#SVGID_84_"  overflow="visible"/>
				</clipPath>
				
					<linearGradient id="SVGID_86_" gradientUnits="userSpaceOnUse" x1="-62.7861" y1="106.9678" x2="-62.0978" y2="106.9678" gradientTransform="matrix(0.2871 4.4014 4.4014 -0.2871 -448.8618 367.9548)">
					<stop  offset="0" style="stop-color:#FFFFFF"/>
					<stop  offset="1" style="stop-color:#9B999E"/>
				</linearGradient>
				<polygon clip-path="url(#SVGID_85_)" fill="url(#SVGID_86_)" points="4.177,60.506 4.379,63.604 3.83,63.641 3.627,60.542 				
					"/>
			</g>
			<g>
				<defs>
					<path id="SVGID_87_" d="M3.198,66.151c-0.533-0.164-1.531-1.028-1.531-1.028C2.518,65.971,3.198,66.151,3.198,66.151"/>
				</defs>
				<clipPath id="SVGID_88_">
					<use xlink:href="#SVGID_87_"  overflow="visible"/>
				</clipPath>
				
					<radialGradient id="SVGID_89_" cx="-47.9507" cy="96.9414" r="0.6884" gradientTransform="matrix(5.0159 0 0 -5.0627 244.9029 557.477)" gradientUnits="userSpaceOnUse">
					<stop  offset="0" style="stop-color:#FFFFFF"/>
					<stop  offset="0.1648" style="stop-color:#FFFFFF"/>
					<stop  offset="1" style="stop-color:#A29A9A"/>
				</radialGradient>
				<rect x="1.667" y="65.123" clip-path="url(#SVGID_88_)" fill="url(#SVGID_89_)" width="1.531" height="1.028"/>
			</g>
			<g>
				<defs>
					<path id="SVGID_90_" d="M6.907,70.991c-0.052-0.033-0.103-0.067-0.15-0.1C6.85,70.957,6.907,70.991,6.907,70.991 M6.757,70.892
						c-0.312-0.232-1.028-0.842-1.15-1.719C5.607,69.173,5.58,70.053,6.757,70.892"/>
				</defs>
				<clipPath id="SVGID_91_">
					<use xlink:href="#SVGID_90_"  overflow="visible"/>
				</clipPath>
				
					<radialGradient id="SVGID_92_" cx="-28.231" cy="103.9473" r="0.6895" gradientTransform="matrix(1.8739 0 0 -1.8914 58.5461 265.832)" gradientUnits="userSpaceOnUse">
					<stop  offset="0" style="stop-color:#FFFFFF"/>
					<stop  offset="0.1648" style="stop-color:#FFFFFF"/>
					<stop  offset="1" style="stop-color:#A29A9A"/>
				</radialGradient>
				<rect x="5.58" y="69.173" clip-path="url(#SVGID_91_)" fill="url(#SVGID_92_)" width="1.327" height="1.818"/>
			</g>
			<g>
				<defs>
					<path id="SVGID_93_" d="M17.456,58.601c-0.504-0.841-1.354-1.611-1.925-2.073C16.697,57.491,17.456,58.601,17.456,58.601
						 M15.531,56.527c-0.183-0.151-0.377-0.301-0.579-0.439C14.999,56.12,15.225,56.278,15.531,56.527 M14.952,56.088
						c-0.004-0.004-0.005-0.004-0.008-0.005C14.947,56.084,14.949,56.085,14.952,56.088 M14.944,56.083c0,0,0-0.001-0.002-0.001
						C14.942,56.082,14.944,56.082,14.944,56.083"/>
				</defs>
				<clipPath id="SVGID_94_">
					<use xlink:href="#SVGID_93_"  overflow="visible"/>
				</clipPath>
				
					<radialGradient id="SVGID_95_" cx="-48.3599" cy="96.4814" r="0.6888" gradientTransform="matrix(4.6632 0 0 -4.7066 243.4114 513.0302)" gradientUnits="userSpaceOnUse">
					<stop  offset="0" style="stop-color:#FFFFFF"/>
					<stop  offset="0.1648" style="stop-color:#FFFFFF"/>
					<stop  offset="1" style="stop-color:#A29A9A"/>
				</radialGradient>
				<rect x="14.942" y="56.082" clip-path="url(#SVGID_94_)" fill="url(#SVGID_95_)" width="2.514" height="2.519"/>
			</g>
			<g>
				<path fill="#F9D763" d="M24.922,54.043c0,0,0.844-1.146,1.034-1.438l-0.103,0.578L24.922,54.043z"/>
				<path fill="#F8C020" d="M25.864,10.432c-1.41-2.578-2.638-5.283-3.284-7.219c-2.247-6.752-3.714,0.181-9.781,2.981
					c-6.603,3.049-6.757,9.503-2.855,12.868c0.793,0.682,1.636,1.501,2.47,2.368c1.759-1.683,4.188-3.678,6.797-4.804
					C21.446,15.661,23.875,13.025,25.864,10.432"/>
				<path fill="#E02633" d="M20.756,21.518c-1.896,0.816-3.694,2.092-5.213,3.376c1.92,2.241,3.348,4.099,3.348,4.099
					c8.42-11.33,12.076-10.083,12.076-10.083s-1.271-1.927-2.84-4.544C26.024,17.24,23.268,20.435,20.756,21.518"/>
				<path fill="#003083" d="M28.126,14.365c-0.722-1.205-1.506-2.557-2.262-3.934c-1.99,2.595-4.418,5.229-6.652,6.193
					c-2.612,1.126-5.04,3.121-6.799,4.805c1.093,1.133,2.172,2.343,3.132,3.464c1.517-1.284,3.315-2.558,5.211-3.376
					C23.268,20.435,26.024,17.24,28.126,14.365"/>
				<path fill="#F8C020" d="M13.474,33.2c0,0,6.391-6.263,8.901-8.903c2.512-2.64,6.396-5.408,7.927-6.162
					c1.531-0.756,5.034-2.534,6.44-3.862c1.406-1.33,2.595,0,2.744,0.688c0.15,0.688-1.562,2.488-8.935,6.169
					c-7.373,3.679-9.093,6.016-10.908,8.695c-1.815,2.678-3.61,3.758-4.925,5.547C13.406,37.163,11.254,35.389,13.474,33.2"/>
				<g opacity="0.2">
					<g>
						<defs>
							<rect id="SVGID_96_" x="7.351" y="3.209" width="15.036" height="32.899"/>
						</defs>
						<clipPath id="SVGID_97_">
							<use xlink:href="#SVGID_96_"  overflow="visible"/>
						</clipPath>
						<path clip-path="url(#SVGID_97_)" fill="#1F140F" d="M22.375,24.297c0,0-0.851-0.618-1.092-0.949
							c-0.239-0.331-0.827-1.7-0.827-1.7s-1.254-0.278-2.084-1.498c-0.539-0.793-0.812-2.593-0.877-2.679
							c-3.967-5.108-1.981-10.721-0.51-14.263c-1.107,1.057-2.46,2.188-4.185,2.985c-6.604,3.049-6.759,9.502-2.857,12.868
							c0.794,0.682,1.636,1.501,2.47,2.368c1.093,1.134,2.172,2.344,3.131,3.465c1.237,1.444,2.263,2.721,2.841,3.452
							C15.923,30.8,13.474,33.2,13.474,33.2c-2.22,2.189-0.068,3.962,1.246,2.171c1.312-1.789,3.109-2.868,4.923-5.546
							c0.78-1.149,1.543-2.235,2.743-3.393c0,0-0.591-0.166-0.706-0.33c-0.102-0.146-0.168-0.912-0.168-0.912L22.375,24.297z"/>
					</g>
				</g>
			</g>
		</g>
	</g>
	<path fill="#5C5B5F" d="M192.62,45.557h0.059l5.145-13.593h5.953V34.4l-0.988,0.088c-0.542,0.062-0.903,0.242-0.874,1.056
		l0.753,13.773l1.866,0.093v2.561h-7.253v-2.438l1.082-0.093c0.483-0.029,0.812-0.215,0.786-0.779l-0.576-10.622h-0.057
		l-4.637,12.004h-2.856l-4.569-11.885h-0.061l-0.604,11.159l1.959,0.093v2.561h-7.1v-2.438l1.081-0.093
		c0.423-0.029,0.72-0.329,0.748-0.81l0.82-13.988l-1.841-0.12v-2.557h6.047L192.62,45.557z"/>
	<path fill="#5C5B5F" d="M217.6,40.565c0,4.631-5.027,5.417-8.573,5.445c0.119,1.956,1.144,3.553,3.696,3.553
		c1.776,0,3.07-0.818,3.792-1.326l1.144,2.437c-0.477,0.42-2.468,1.687-5.292,1.687c-5.115,0-7.102-3.136-7.102-7.612
		c0-4.452,2.501-8.363,7.429-8.363C215.646,36.384,217.6,37.889,217.6,40.565 M212.482,38.939c-2.402,0-3.485,2.317-3.572,4.544
		c2.22-0.029,5.379-0.544,5.379-2.857C214.289,39.512,213.571,38.939,212.482,38.939"/>
	<path fill="#5C5B5F" d="M223.77,52.687c0,2.887-0.539,5.716-4.815,5.716c-1.228,0-2.793-0.392-3.845-1.053l1.085-2.498
		c0.718,0.393,1.443,0.634,2.222,0.634c1.144,0,1.774-0.66,1.774-2.646V40.267c0-0.664-0.174-0.845-0.749-0.875l-1.056-0.059v-2.497
		h5.384V52.687z"/>
	<path fill="#5C5B5F" d="M231.759,36.366c2.228,0,6.707,0.692,6.707,7.61c0,5.774-3.219,8.422-7.191,8.422
		c-4.027,0-6.677-2.586-6.677-8.032C224.598,38.109,228.656,36.366,231.759,36.366 M234.795,44.456c0-3.367-0.809-5.444-3.22-5.444
		c-2.376,0-3.338,2.044-3.338,4.934c0,2.795,0.39,5.804,3.277,5.804C233.863,49.75,234.795,47.581,234.795,44.456"/>
	<path fill="#5C5B5F" d="M239.698,40.254c0-0.663-0.183-0.876-0.758-0.906l-1.261-0.088v-2.437h5.085v2.257
		c0.69-1.508,2.282-2.706,4.273-2.706c0.988,0,1.891,0.179,2.889,0.658v4.483l-2.8,0.208v-1.38c0-0.362-0.058-0.633-0.302-0.752
		c-0.269-0.122-0.484-0.15-0.807-0.15c-1.635,0-2.746,1.292-2.746,3.036v6.98l2.619,0.122v2.375h-8.062v-2.289l0.993-0.086
		c0.568-0.06,0.875-0.245,0.875-1V40.254z"/>
	<path fill="#5D91C9" d="M249.638,50.673c0-0.59,0.408-1.034,0.979-1.034c0.57,0,0.965,0.431,0.965,1.034
		c0,0.591-0.395,1.029-0.996,1.029C250.03,51.702,249.638,51.264,249.638,50.673"/>
	<path fill="#5D91C9" d="M258.028,51.244c-0.376,0.183-1.205,0.459-2.268,0.459c-2.389,0-3.942-1.62-3.942-4.038
		c0-2.436,1.666-4.217,4.248-4.217c0.853,0,1.602,0.213,1.997,0.427l-0.325,1.095c-0.348-0.18-0.886-0.377-1.672-0.377
		c-1.81,0-2.789,1.357-2.789,2.988c0,1.833,1.174,2.963,2.742,2.963c0.821,0,1.358-0.194,1.766-0.376L258.028,51.244z"/>
	<path fill="#5D91C9" d="M266.531,47.502c0,2.926-2.042,4.2-3.938,4.2c-2.128,0-3.794-1.57-3.794-4.067
		c0-2.632,1.75-4.188,3.923-4.188C264.996,43.447,266.531,45.098,266.531,47.502 M260.081,47.581c0,1.735,0.977,3.04,2.383,3.04
		c1.377,0,2.403-1.289,2.403-3.07c0-1.339-0.668-3.022-2.368-3.022C260.815,44.528,260.081,46.098,260.081,47.581"/>
	<path fill="#5D91C9" d="M267.619,43.612h1.193l0.063,1.289h0.055c0.439-0.751,1.178-1.454,2.497-1.454
		c1.062,0,1.881,0.658,2.226,1.587h0.03c0.245-0.459,0.571-0.786,0.898-1.029c0.479-0.359,0.98-0.558,1.734-0.558
		c1.062,0,2.617,0.687,2.617,3.431v4.644h-1.411V47.06c0-1.533-0.565-2.433-1.711-2.433c-0.836,0-1.457,0.604-1.715,1.293
		c-0.069,0.209-0.116,0.457-0.116,0.716v4.886h-1.404v-4.739c0-1.256-0.559-2.155-1.655-2.155c-0.883,0-1.551,0.719-1.781,1.436
		c-0.08,0.197-0.111,0.459-0.111,0.705v4.754h-1.409V43.612z"/>
	<path fill="#5C5B5F" d="M75.01,34.586c-3.791,0-5.685,2.709-5.685,7.249c0,4.723,1.563,7.643,5.745,7.551
		c0.845,0,1.627-0.09,2.195-0.271c0.543-0.18,0.631-0.418,0.631-0.993v-2.407l3.071,0.218v5.197
		c-1.655,0.871-4.03,1.233-5.958,1.233c-6.106,0-9.447-3.428-9.447-10.285c0-7.85,4.817-10.469,9.447-10.469
		c1.774,0,4.131,0.378,5.935,1.22v5.113l-3.067,0.215v-2.353c0-0.568-0.372-0.796-0.912-0.978
		C76.396,34.648,75.611,34.586,75.01,34.586"/>
	<path fill="#5C5B5F" d="M88.911,36.166c2.231,0,6.708,0.692,6.708,7.61c0,5.777-3.217,8.422-7.187,8.422
		c-4.033,0-6.68-2.583-6.68-8.028C81.751,37.911,85.814,36.166,88.911,36.166 M91.951,44.258c0-3.367-0.809-5.442-3.22-5.442
		c-2.374,0-3.34,2.042-3.34,4.929c0,2.797,0.394,5.808,3.283,5.808C91.02,49.553,91.951,47.385,91.951,44.258"/>
	<path fill="#5C5B5F" d="M148.996,48.611c0,0.662,0.183,0.843,0.752,0.872l0.963,0.058v2.407h-4.781v-1.744l-0.094-0.029
		c-0.934,1.355-2.467,2.164-4.119,2.164c-4.239,0-6.016-3.007-6.016-7.308c0-5.294,2.527-8.663,7.942-8.663
		c0.991,0,3.189,0.237,5.354,1.055V48.611z M145.506,39.375c-0.45-0.207-1.38-0.391-2.316-0.391c-2.856,0-3.819,2.677-3.819,5.926
		c0,2.497,0.601,4.873,3.129,4.873c1.865,0,3.007-1.324,3.007-2.618V39.375z"/>
	<path fill="#5C5B5F" d="M177.846,48.611c0,0.662,0.177,0.843,0.753,0.871l0.964,0.059v2.407h-4.785v-1.744l-0.095-0.032
		c-0.925,1.358-2.464,2.167-4.117,2.167c-4.241,0-6.017-3.007-6.017-7.308c0-5.294,2.53-8.663,7.943-8.663
		c0.993,0,3.188,0.237,5.354,1.052V48.611z M174.358,39.375c-0.452-0.207-1.388-0.391-2.318-0.391c-2.856,0-3.817,2.677-3.817,5.926
		c0,2.497,0.602,4.873,3.124,4.873c1.866,0,3.012-1.324,3.012-2.619V39.375z"/>
	<path fill="#5C5B5F" d="M129.702,36.392c-2.56,0-4.212,1.38-4.753,2.405v-1.954h-5.084v2.437l1.263,0.09
		c0.572,0,0.753,0.241,0.753,0.903v14.56c0,0.749-0.301,0.932-0.871,0.988l-0.992,0.093v2.287h5.319v-2.497v-2.29v-1.86
		c0.783,0.479,2.049,0.872,3.225,0.872c3.969,0,6.586-2.859,6.586-8.394C135.147,38.649,133.04,36.392,129.702,36.392
		 M127.989,49.566c-0.784,0-1.87-0.241-2.653-0.75v-6.921c0-1.38,1.326-2.585,3.041-2.585c1.592,0,3.04,1.021,3.04,5.024
		C131.417,46.95,130.542,49.566,127.989,49.566"/>
	<path fill="#5C5B5F" d="M160.967,36.392c-1.987,0-3.582,1.204-4.274,2.708v-2.257h-5.084v2.437l1.263,0.09
		c0.572,0.03,0.756,0.241,0.756,0.903v8.333c0,0.75-0.301,0.93-0.874,0.991l-0.995,0.09v2.284h5.443v-2.493v-1.408v-5.571
		c0-1.744,1.117-3.039,2.743-3.039c0.327,0,0.54,0.032,0.809,0.151c0.242,0.12,0.304,0.395,0.304,0.752v1.383l2.795-0.212v-4.479
		C162.859,36.573,161.957,36.392,160.967,36.392"/>
	<path fill="#5C5B5F" d="M119.179,49.478v-7.852c0-3.549-1.684-5.233-4.509-5.233c-1.987,0-3.52,0.901-4.573,2.405
		c-0.691-1.622-2.076-2.405-4-2.405c-1.987,0-3.523,0.901-4.572,2.405v-1.955h-5.085v2.438l1.265,0.091
		c0.571,0.029,0.752,0.27,0.752,0.931v8.304h-0.032c0,0.75-0.299,0.93-0.872,0.991l-0.991,0.09v2.284h5.471v-2.493v-2.179v-5.103
		c0-1.562,0.811-3.037,2.922-3.037c1.923,0,2.071,1.41,2.071,3.246v6.2c0,0.75-0.299,0.93-0.869,0.991l-0.995,0.09v2.284h7.1v-2.404
		l-1.653-0.089v-7.221c0-1.773,0.897-3.098,2.918-3.098c1.921,0,2.073,1.41,2.073,3.246v6.23c-0.032,0.72-0.329,0.899-0.873,0.961
		l-0.994,0.09v2.284h7.16v-2.404L119.179,49.478z"/>
	<path fill="#5C5B5F" d="M223.481,32.715c0-1.309-1.062-2.372-2.368-2.372c-1.308,0-2.371,1.063-2.371,2.372
		s1.063,2.368,2.371,2.368C222.419,35.083,223.481,34.023,223.481,32.715"/>
</g>
</svg>
