<?xml version="1.0" encoding="utf-8"?>
<!-- Generator: Adobe Illustrator 18.1.0, SVG Export Plug-In . SVG Version: 6.00 Build 0)  -->
<svg version="1.1" id="Capa_1" xmlns="http://www.w3.org/2000/svg" xmlns:xlink="http://www.w3.org/1999/xlink" x="0px" y="0px"
	 viewBox="0 0 250 72.5" enable-background="new 0 0 250 72.5" xml:space="preserve">
<g>
	<polygon fill="#C13235" points="16.9,57.1 16.9,40.8 32.5,34.7 32.5,49.6 	"/>
	<polygon fill="#8B2226" points="16.9,40.8 4.8,36.6 19.6,30.4 32.5,34.7 	"/>
	<polygon fill="#65181C" points="16.9,40.8 16.9,57.1 4.8,50.6 4.8,36.6 	"/>
	<polygon fill="#76A9DA" points="22.8,38.5 22.8,55.3 27.3,53.6 26.2,37.2 	"/>
	<polygon fill="#4A72B0" points="22.8,38.5 10.9,34.1 15.2,32.3 26.2,37.2 	"/>
	<polygon fill="#4A72B0" points="26.9,32.8 14.3,39.9 9.7,38.3 23.8,31.8 	"/>
	<polygon fill="#2A4E80" points="14.3,39.9 14.3,55.6 9,53 9.7,38.3 	"/>
	<g>
		<path fill="#4A72B0" d="M17.8,36l1.2-1c0,0,3.4-2.9,3.4-5.6c0-0.6,0.2-1.1,0.6-1.5c0.4-0.4,1.1-0.7,1.9-0.7c1.3,0,3,0.7,3.6,1.8
			c0.3,0.6,0.3,1.2-0.1,1.7c-1.5,2.2-4,5.2-9,5.3L17.8,36z M24.9,28.4c-0.5,0-0.9,0.1-1.1,0.3c-0.2,0.2-0.2,0.4-0.2,0.7
			c0,2.1-1.5,4.1-2.7,5.4c3.4-0.5,5.3-2.7,6.6-4.6c0.1-0.2,0.1-0.3,0-0.5C27.2,28.9,25.9,28.4,24.9,28.4z"/>
	</g>
	<g>
		<path fill="#4A72B0" d="M21,36.2l-1.6,0c-5,0-7.5-3-9-5.3c-0.3-0.5-0.4-1.1-0.1-1.7c0.6-1.1,2.3-1.8,3.6-1.8
			c0.8,0,1.4,0.2,1.9,0.7c0.4,0.4,0.6,0.9,0.6,1.5c0,2.7,3.4,5.6,3.4,5.6L21,36.2z M13.9,28.6c-1,0-2.3,0.6-2.6,1.2
			c-0.1,0.2-0.1,0.4,0,0.5c1.3,1.9,3.1,4.1,6.6,4.6c-1.1-1.2-2.7-3.2-2.7-5.4c0-0.3-0.1-0.5-0.2-0.7C14.8,28.7,14.4,28.6,13.9,28.6z
			"/>
	</g>
	<polygon fill="#E5B449" points="29.3,58.9 29.3,49.4 38.4,45.8 38.4,54.5 	"/>
	<polygon fill="#DA9500" points="29.3,49.4 22.2,47 30.9,43.3 38.4,45.8 	"/>
	<polygon fill="#A8731C" points="29.3,49.4 29.3,58.9 22.2,55.1 22.2,47 	"/>
	<polygon fill="#A1BC31" points="32.7,48.1 32.7,57.8 35.4,56.9 34.7,47.3 	"/>
	<g>
		<g>
			<path fill="#6F90C6" d="M75.7,38.9c0,0-1.2-0.5-2.7-0.2c-0.4-0.7-2-3.7-1.8-5.2c0.3-1.7,2.3-2.5,3-2.8c0,0,0.3-0.1,0.2-0.3
				c-0.1-0.3-0.9,0-1,0c-0.2,0-2,0.4-3.2,2.5c-1.1,1.9,0.5,5.6,1,6.5c-1.1,0.7-2.1,2.1-2.6,4.7c-0.7-0.5-1.6-1.3-2.6-2.4
				c0,0-0.5-0.5-1-1.1c-1.5-1.6-0.7-3.2,0.6-8c0-0.2,0.1-0.3,0.1-0.5c0.5-1.2,0.7-2.6,0.7-3.9c0-6.3-5.1-11.4-11.4-11.4
				c-4.1,0-7.7,2.2-9.7,5.4c-1.2,1.6-1.6,3.5-1.7,5.2c0,0.2,0,0.5,0,0.8c0,1.5,0.3,2.8,0.8,4.1c0,0.1,0.1,0.2,0.1,0.3
				c0.4,1,1,1.9,1.6,2.7c1.5,2,3.3,3.7,3.8,5c0.5,1.2,0.3,2,0.1,2.4c-0.5,0.7-0.8,1.2-0.8,1.2c-0.8,1.2-1.6,2.1-2.2,2.7
				c-0.8-2.5-2-3.7-3.2-4.3c0.3-0.9,1.4-4.8,0.1-6.5c-1.4-1.9-3.3-2-3.4-2c-0.1,0-1-0.2-1,0.1C39.4,34,39.7,34,39.7,34
				c0.8,0.2,2.9,0.7,3.4,2.3c0.4,1.4-0.8,4.6-1.1,5.4c-1.5,0-2.6,0.6-2.6,0.6c-0.5,0.3-0.4,0.5-0.4,0.5s0.1,0.1,0.5,0
				c0.5-0.2,2.1-0.2,2.1-0.2c0,0,0,0,0.1,0c-0.4,0.7-1.3,2.4-1.3,4.4c0,3,2.4,4.4,5.6,3.9c0.1,1.3,0.9,6.2,6.2,5.5
				c4.9-0.7,5.7-5,6.1-8.4c1,3.1,2.4,6.7,6.8,6.6c5.3-0.1,5.5-4.9,5.4-6.2c3.2,0,5.4-1.6,5.1-4.6c-0.3-2-1.4-3.6-1.8-4.2
				c0,0,0.2,0,0.4-0.1c1.1-0.2,1.4-0.2,1.8,0c0.5,0.1,0.5,0,0.5,0S76.4,39.1,75.7,38.9z M43.1,47.5c-0.7-0.7,0.1-3.3,0.4-4.2
				c1.6,1.1,1.9,3.4,2,4.4C44.3,48.3,43.6,48,43.1,47.5z M51,52.8c-1.7,0.3-2.7-1.3-3-2.7c2.5-1.4,5.1-4.4,5.5-4.8l0.1,0
				C53.5,45.4,53.2,52.4,51,52.8z M65.8,50.7c-2.2-0.1-3.7-6.9-3.7-6.9l0.1-0.1c0.5,0.4,3.4,3,6.1,4.1C68,49.2,67.5,50.8,65.8,50.7z
				 M72.7,44.5c-0.4,0.5-1.1,0.9-2.3,0.5c-0.1-1,0-3.3,1.4-4.6C72.1,41.2,73.2,43.7,72.7,44.5z"/>
			<g>
				<path fill="#2D6194" d="M50.5,29.4c0,1.2-1,2.2-2.2,2.2c-1.2,0-2.2-1-2.2-2.2c0-1.2,1-2.2,2.2-2.2
					C49.6,27.3,50.5,28.2,50.5,29.4z"/>
				<circle fill="#2D6194" cx="49.6" cy="25.5" r="1.1"/>
				<circle fill="#2D6194" cx="47.3" cy="26.1" r="0.5"/>
			</g>
			<g opacity="0.3">
				<g>
					<path fill="#2D6194" d="M49.8,35.1c-4.6-5-2.4-12.3-0.9-16.6c-1.3,0.7-2.9,2.5-3.5,3.6c-1.2,1.6-1.6,3.5-1.7,5.2
						c0,0.2,0,0.5,0,0.8c0,1.5,0.3,2.8,0.8,4.1c0,0.1,0.1,0.2,0.1,0.3c0.4,1,1,1.9,1.6,2.7c1.5,2,3.3,3.7,3.8,5
						c0.5,1.2,0.3,2,0.1,2.4c-0.5,0.7-0.8,1.2-0.8,1.2c-0.8,1.2-1.6,2.1-2.2,2.7c-0.8-2.5-2-3.7-3.2-4.3c0.3-0.9,1.4-4.8,0.1-6.5
						c-1.4-1.9-3.3-2-3.4-2c-0.1,0-1-0.2-1,0.1c-0.1,0.2,0.3,0.3,0.3,0.3c0.8,0.2,2.9,0.7,3.4,2.3c0.4,1.4-0.8,4.6-1.1,5.4
						c-1.5,0-2.6,0.6-2.6,0.6c-0.5,0.3-0.4,0.5-0.4,0.5s0.1,0.1,0.5,0c0.5-0.2,2.1-0.2,2.1-0.2c0,0,0,0,0.1,0
						c-0.4,0.7-1.3,2.4-1.3,4.4c0,3,2.4,4.4,5.6,3.9c0,0.1,0,0.3,0.1,0.5c0,0.1,0,0.3,0.1,0.4c0,0.2,0.1,0.4,0.2,0.7
						c0,0.1,0,0.1,0.1,0.2c0,0,0,0.1,0,0.1c1.1,3.5,5.1,2.9,7.4,1.1C56.3,52,57.8,43.6,49.8,35.1z M43.1,47.4
						c-0.7-0.7,0.1-3.3,0.4-4.2c1.6,1.1,1.9,3.4,2,4.4C44.3,48.2,43.6,47.9,43.1,47.4z M51,52.8c-1.7,0.3-2.7-1.3-3-2.7
						c2.5-1.4,5.1-4.4,5.5-4.8l0.1,0C53.5,45.3,53.2,52.4,51,52.8z"/>
				</g>
			</g>
		</g>
		<g>
			<path fill="#5B5B5F" d="M179.2,37.5L179.2,37.5l4-10.6h4.6v1.9l-0.8,0.1c-0.4,0-0.7,0.2-0.7,0.8l0.6,10.7l1.4,0.1v2h-5.6v-1.9
				l0.8-0.1c0.4,0,0.6-0.2,0.6-0.6l-0.4-8.3h0l-3.6,9.3h-2.2l-3.6-9.2h0l-0.5,8.7l1.5,0.1v2h-5.5v-1.9l0.8-0.1
				c0.3,0,0.6-0.3,0.6-0.6l0.6-10.9l-1.4-0.1v-2h4.7L179.2,37.5z"/>
			<path fill="#5B5B5F" d="M198.6,33.6c0,3.6-3.9,4.2-6.7,4.2c0.1,1.5,0.9,2.8,2.9,2.8c1.4,0,2.4-0.6,2.9-1l0.9,1.9
				c-0.4,0.3-1.9,1.3-4.1,1.3c-4,0-5.5-2.4-5.5-5.9c0-3.5,1.9-6.5,5.8-6.5C197.1,30.4,198.6,31.5,198.6,33.6z M194.6,32.4
				c-1.9,0-2.7,1.8-2.8,3.5c1.7,0,4.2-0.4,4.2-2.2C196,32.8,195.4,32.4,194.6,32.4z"/>
			<path fill="#5B5B5F" d="M203.4,43c0,2.2-0.4,4.4-3.7,4.4c-1,0-2.2-0.3-3-0.8l0.8-1.9c0.6,0.3,1.1,0.5,1.7,0.5
				c0.9,0,1.4-0.5,1.4-2.1v-9.8c0-0.5-0.1-0.7-0.6-0.7l-0.8,0v-1.9h4.2V43z"/>
			<path fill="#5B5B5F" d="M209.6,30.4c1.7,0,5.2,0.5,5.2,5.9c0,4.5-2.5,6.5-5.6,6.5c-3.1,0-5.2-2-5.2-6.2
				C204,31.7,207.2,30.4,209.6,30.4z M211.9,36.6c0-2.6-0.6-4.2-2.5-4.2c-1.8,0-2.6,1.6-2.6,3.8c0,2.2,0.3,4.5,2.5,4.5
				C211.2,40.8,211.9,39.1,211.9,36.6z"/>
			<path fill="#5B5B5F" d="M215.7,33.4c0-0.5-0.1-0.7-0.6-0.7l-1-0.1v-1.9h4v1.8c0.5-1.2,1.8-2.1,3.3-2.1c0.8,0,1.5,0.1,2.2,0.5v3.5
				l-2.2,0.2v-1.1c0-0.3,0-0.5-0.2-0.6c-0.2-0.1-0.4-0.1-0.6-0.1c-1.3,0-2.1,1-2.1,2.4v5.4l2,0.1v1.8h-6.3v-1.8l0.8-0.1
				c0.4,0,0.7-0.2,0.7-0.8V33.4z"/>
			<path fill="#6F90C6" d="M230,41.9c-0.3,0.1-0.9,0.4-1.8,0.4c-1.9,0-3.1-1.3-3.1-3.1c0-1.9,1.3-3.3,3.3-3.3c0.7,0,1.2,0.2,1.6,0.3
				l-0.3,0.9c-0.3-0.1-0.7-0.3-1.3-0.3c-1.4,0-2.2,1.1-2.2,2.3c0,1.4,0.9,2.3,2.1,2.3c0.6,0,1.1-0.2,1.4-0.3L230,41.9z"/>
			<path fill="#6F90C6" d="M236.6,39c0,2.3-1.6,3.3-3.1,3.3c-1.7,0-2.9-1.2-2.9-3.2c0-2,1.4-3.3,3-3.3
				C235.4,35.9,236.6,37.1,236.6,39z M231.6,39.1c0,1.3,0.8,2.4,1.9,2.4c1.1,0,1.9-1,1.9-2.4c0-1-0.5-2.3-1.8-2.3
				C232.1,36.7,231.6,37.9,231.6,39.1z"/>
			<path fill="#6F90C6" d="M237.4,36h0.9l0.1,1h0c0.3-0.6,0.9-1.1,1.9-1.1c0.8,0,1.5,0.5,1.7,1.2h0c0.2-0.4,0.4-0.6,0.7-0.8
				c0.4-0.3,0.8-0.4,1.3-0.4c0.8,0,2,0.5,2,2.7v3.6h-1.1v-3.5c0-1.2-0.4-1.9-1.3-1.9c-0.6,0-1.1,0.5-1.3,1c-0.1,0.2-0.1,0.4-0.1,0.6
				v3.8h-1.1v-3.7c0-1-0.4-1.7-1.3-1.7c-0.7,0-1.2,0.6-1.4,1.1c-0.1,0.2-0.1,0.4-0.1,0.5v3.7h-1.1V36z"/>
			<path fill="#5B5B5F" d="M87.8,29c-2.9,0-4.4,2.1-4.4,5.6c0,3.7,1.2,5.9,4.5,5.9c0.7,0,1.3-0.1,1.7-0.2c0.4-0.1,0.5-0.3,0.5-0.8
				v-1.9l2.4,0.2v4c-1.3,0.7-3.1,1-4.6,1c-4.7,0-7.3-2.7-7.3-8c0-6.1,3.7-8.1,7.3-8.1c1.4,0,3.2,0.3,4.6,0.9v4L90,31.7v-1.8
				c0-0.4-0.3-0.6-0.7-0.8C88.9,29,88.3,29,87.8,29z"/>
			<path fill="#5B5B5F" d="M98.6,30.2c1.7,0,5.2,0.5,5.2,5.9c0,4.5-2.5,6.5-5.6,6.5c-3.1,0-5.2-2-5.2-6.2
				C93,31.6,96.2,30.2,98.6,30.2z M100.9,36.5c0-2.6-0.6-4.2-2.5-4.2c-1.8,0-2.6,1.6-2.6,3.8c0,2.2,0.3,4.5,2.5,4.5
				C100.2,40.6,100.9,38.9,100.9,36.5z"/>
			<path fill="#5B5B5F" d="M145.3,39.9c0,0.5,0.1,0.7,0.6,0.7l0.7,0v1.9h-3.7v-1.4l-0.1,0c-0.7,1.1-1.9,1.7-3.2,1.7
				c-3.3,0-4.7-2.3-4.7-5.7c0-4.1,2-6.7,6.2-6.7c0.8,0,2.5,0.2,4.2,0.8V39.9z M142.6,32.7c-0.3-0.2-1.1-0.3-1.8-0.3
				c-2.2,0-3,2.1-3,4.6c0,1.9,0.5,3.8,2.4,3.8c1.4,0,2.3-1,2.3-2V32.7z"/>
			<path fill="#5B5B5F" d="M167.7,39.9c0,0.5,0.1,0.7,0.6,0.7l0.7,0v1.9h-3.7v-1.4l-0.1,0c-0.7,1.1-1.9,1.7-3.2,1.7
				c-3.3,0-4.7-2.3-4.7-5.7c0-4.1,2-6.7,6.2-6.7c0.8,0,2.5,0.2,4.2,0.8V39.9z M165,32.7c-0.4-0.2-1.1-0.3-1.8-0.3
				c-2.2,0-3,2.1-3,4.6c0,1.9,0.5,3.8,2.4,3.8c1.5,0,2.3-1,2.3-2V32.7z"/>
			<g>
				<path fill="#5B5B5F" d="M130.3,30.4c-2,0-3.3,1.1-3.7,1.9v-1.5h-4v1.9l1,0.1c0.4,0,0.6,0.2,0.6,0.7v11.3c0,0.6-0.2,0.7-0.7,0.8
					l-0.8,0.1v1.8h4.1v-1.9v-1.8v-1.4c0.6,0.4,1.6,0.7,2.5,0.7c3.1,0,5.1-2.2,5.1-6.5C134.5,32.1,132.9,30.4,130.3,30.4z
					 M128.9,40.6c-0.6,0-1.5-0.2-2.1-0.6v-5.4c0-1.1,1-2,2.4-2c1.2,0,2.4,0.8,2.4,3.9C131.6,38.6,130.9,40.6,128.9,40.6z"/>
			</g>
			<g>
				<path fill="#5B5B5F" d="M154.6,30.4c-1.5,0-2.8,0.9-3.3,2.1v-1.8h-4v1.9l1,0.1c0.4,0,0.6,0.2,0.6,0.7v6.5c0,0.6-0.2,0.7-0.7,0.8
					l-0.8,0.1v1.8h4.2v-1.9v-1.1v-4.3c0-1.4,0.9-2.4,2.1-2.4c0.3,0,0.4,0,0.6,0.1c0.2,0.1,0.2,0.3,0.2,0.6v1.1l2.2-0.2v-3.5
					C156,30.5,155.3,30.4,154.6,30.4z"/>
			</g>
			<g>
				<path fill="#5B5B5F" d="M122.1,40.5v-6.1c0-2.8-1.3-4.1-3.5-4.1c-1.5,0-2.7,0.7-3.6,1.9c-0.5-1.3-1.6-1.9-3.1-1.9
					c-1.5,0-2.7,0.7-3.6,1.9v-1.5h-4v1.9l1,0.1c0.4,0,0.6,0.2,0.6,0.7v6.5h0c0,0.6-0.2,0.7-0.7,0.8l-0.8,0.1v1.8h4.3v-1.9v-1.7v-4
					c0-1.2,0.6-2.4,2.3-2.4c1.5,0,1.6,1.1,1.6,2.5v4.8c0,0.6-0.2,0.7-0.7,0.8l-0.8,0.1v1.8h5.5v-1.9l-1.3-0.1v-5.6
					c0-1.4,0.7-2.4,2.3-2.4c1.5,0,1.6,1.1,1.6,2.5v4.8c0,0.6-0.3,0.7-0.7,0.7l-0.8,0.1v1.8h5.6v-1.9L122.1,40.5z"/>
			</g>
			<circle fill="#5B5B5F" cx="201.3" cy="27.5" r="1.8"/>
		</g>
	</g>
	<path fill="#BD2941" d="M63.5,19.8c0,0-0.2-6.5-6.9-9.2s-19-3.2-22.5,15l1.2,0.5c0,0,3.7-4.8,5.1-3.3c1.2,1.3,2.1,5.3,2.3,6.3
		c0,0.1,0,0.2,0,0.2S50.1,21.1,63.5,19.8z"/>
	<g opacity="0.28">
		<path fill="#7A1929" d="M42.7,18.5c-4.8,0-7.3,5.6-8,7.4l0.7,0.3c0,0,3.7-4.8,5.1-3.3c1.2,1.3,2.1,5.3,2.3,6.3c0,0.1,0,0.2,0,0.2
			s1.4-1.6,4.2-3.6C46.8,22.3,45.8,18.5,42.7,18.5z"/>
	</g>
	<path fill="#E8E8E7" d="M43.3,31.1c0,0,1.2-0.2,1.3-1.4c0,0,1.2-0.4,1.4-1.9c0,0,1.3-0.4,1.7-1.7c0,0,3.2-0.5,3.7-1.9
		c0,0,2.7,0.5,3.7-0.7c0,0,1.2,0.6,1.5,0c0,0,2.7,0.6,3.6-0.7c0,0,1.3,0.9,1.9,0c0,0,0.7,0.8,1.5,0c0,0,0.8,0.9,1,0
		c0,0,1.1,0.3,1.1-0.4c0,0,0.7-1.3,0.3-1.5c0,0,0.5-2.3-1.2-2c0,0-1.1-1.5-2.1,0c0,0-1.1-1.2-2.2-0.4c0,0-1.3-1-2.4,0.3
		c0,0-1.7-1.3-3.1,0.1c0,0-1.9-0.7-3.1,0.7c0,0-1.9-0.9-2.9,0.9c0,0-1.8-0.1-2,1.3c0,0-1.7-0.3-1.7,1.6c0,0-2,0.2-1.8,1.9
		c0,0-1.6,0.5-1.1,1.8c0,0-1.6,0.6-0.4,2.1c0,0-1.1,0.8-0.4,1.5C41.7,30.5,42,32.5,43.3,31.1z"/>
	<path fill="#E8E8E7" d="M32.5,24.9c0,0,0.5-2.1,1.6-0.7c0,0,0.3-1.2,0.9-0.2c0,0,0.9-0.9,1.3,0.5c0,0,1.6,0.5,0.9,2.3
		c0,0-0.2,2.1-1.2,1.8c0,0-0.8,1.3-1.4,0.4c0,0-1.4,0.5-1.5-0.8c0,0-1.9-0.1-1.4-1.4C31.6,26.8,31.2,23.7,32.5,24.9z"/>
	<g>
		<g>
			<g>
				<polygon fill="#323230" points="44.2,59 44.7,59 44.6,57.9 43.9,57.4 43.2,57.7 43.3,58.4 				"/>
				<polygon fill="#323230" points="38.2,62.4 37.8,63.1 36.8,62.6 36.3,61.4 37,61 38,61.7 				"/>
				<g>
					
						<ellipse transform="matrix(0.9275 0.3738 -0.3738 0.9275 25.1722 -11.718)" fill="#4F4E4F" cx="42.8" cy="59" rx="0.9" ry="1.5"/>
					<polygon fill="#4F4E4F" points="43,60.7 43,60.8 42.2,60.4 42.5,58.5 43.4,57.8 44.2,58.1 44,58.4 					"/>
					
						<ellipse transform="matrix(0.9274 0.374 -0.374 0.9274 25.3907 -11.977)" fill="#777777" cx="43.6" cy="59.4" rx="0.9" ry="1.5"/>
					
						<ellipse transform="matrix(0.9275 0.3737 -0.3737 0.9275 25.3776 -11.9824)" fill="#4F4E4F" cx="43.6" cy="59.5" rx="0.5" ry="0.8"/>
					
						<ellipse transform="matrix(0.9275 0.3739 -0.3739 0.9275 25.3824 -11.9726)" fill="#CBCBCB" cx="43.6" cy="59.4" rx="0.4" ry="0.7"/>
				</g>
				<g>
					
						<ellipse transform="matrix(0.9274 0.374 -0.374 0.9274 26.0173 -8.9127)" fill="#4F4E4F" cx="36" cy="62.6" rx="0.9" ry="1.5"/>
					<polygon fill="#4F4E4F" points="36.2,64.2 36.1,64.3 35.4,63.9 35.7,62 36.6,61.4 37.4,61.7 37.2,61.9 					"/>
					
						<ellipse transform="matrix(0.9274 0.3742 -0.3742 0.9274 26.236 -9.1698)" fill="#777777" cx="36.7" cy="63" rx="0.9" ry="1.5"/>
					
						<ellipse transform="matrix(0.9274 0.3741 -0.3741 0.9274 26.2428 -9.1805)" fill="#4F4E4F" cx="36.8" cy="63" rx="0.5" ry="0.8"/>
					
						<ellipse transform="matrix(0.9276 0.3737 -0.3737 0.9276 26.1966 -9.1617)" fill="#CBCBCB" cx="36.7" cy="63" rx="0.4" ry="0.7"/>
				</g>
				<path fill="#C13235" d="M44.8,55.4L41.7,54c0,0-0.5-0.2-1.2,0l-1.7,0.2l-10.1,4.4c0,0-1.2,0.7-1.2,1.7c0,0-0.1,1.5,0.6,1.8
					L33,65c0,0,0.5,0.3,1.5-0.1l1.2-0.7c0-0.1-0.1-0.1-0.1-0.2c-0.2-0.4-0.1-0.9,0.1-1.4l0,0c0.3-0.8,1-1.3,1.6-1.1
					c0.5,0.2,0.7,0.8,0.5,1.5l4.7-2.6c-0.1-0.4-0.1-0.9,0.1-1.3l0,0c0.3-0.8,1-1.3,1.6-1.1c0.4,0.1,0.6,0.5,0.6,1
					c0.7-0.7,0.6-1.5,0.6-1.5l0.1-0.9C45.4,56.7,45.5,55.8,44.8,55.4z"/>
				<path fill="none" d="M31.8,57.2"/>
				
					<ellipse transform="matrix(0.9961 -8.797015e-02 8.797015e-02 0.9961 -5.158 2.7206)" fill="#FFFFFF" cx="28.3" cy="59.9" rx="0.5" ry="0.9"/>
				<path fill="#FFFFFF" d="M32.8,62.3c-0.3,0.4-0.3,0.8,0,1c0.3,0.2,0.8,0,1-0.3c0.3-0.4,0.3-0.8,0-1
					C33.6,61.8,33.1,61.9,32.8,62.3z"/>
				<path fill="#FFFFFF" d="M33.9,55.5l-0.4-0.1l-1.9,1.9c0,0,1.9,2.2,4.6,2.5c0,0,1.2,0.2,2.2-0.4l4.4-2.3c0,0,1-0.6,0.5-1.2
					c0,0-1.8-1.5-3.5-1.7l-1.6-0.3L33.9,55.5z"/>
				<path fill="#C13235" d="M38.9,54l2.7,1.3c0.6,0.3,0.1,0.6,0.1,0.6l-3.3,1.4c-1,0.4-1.7,0-1.7,0l-3.1-1.6c0,0-0.4-0.2,0.3-0.5
					l4.1-1.3C38,53.9,38.5,53.8,38.9,54z"/>
				<path fill="#C13235" d="M41.2,55.8l1.7,0.8c0,0,0.6,0.2-0.1,0.9l1.3-1.4l-2.4-0.7L41.2,55.8z"/>
				<polygon fill="#C13235" points="41.6,55.4 43.7,55.9 43.7,56.2 42.1,55.9 				"/>
			</g>
		</g>
		<path fill="#C13235" d="M36.7,57.4c0,0,0.6,0.2,0.4,0.6l-0.4,1.3c0,0-0.2,0.5-1,0.5l0.4,0.4l0.8,0l0.7-0.2l0.1-0.2
			c0,0-0.7,0.1-0.6-0.5l0.3-1.3c0,0,0-0.4,0.8-0.6l-1.1-0.1L36.7,57.4z"/>
	</g>
	<polygon fill="#839430" points="32.7,48.1 25.8,45.5 28.3,44.4 34.7,47.3 	"/>
	<polygon fill="#839430" points="35.1,44.7 27.8,48.9 25.1,47.9 33.3,44.1 	"/>
	<polygon fill="#606B2B" points="27.8,48.9 27.8,58 24.7,56.5 25.1,47.9 	"/>
	<path fill="none" stroke="#839430" stroke-width="4" stroke-miterlimit="10" d="M30.8,46.2c0,0,2.1-1.8,2.1-3.5s3.7-0.6,2.9,0.6
		C35,44.5,33.6,46.2,30.8,46.2z"/>
	<path fill="none" stroke="#839430" stroke-width="4" stroke-miterlimit="10" d="M30.8,46.3c0,0-2.1-1.8-2.1-3.5s-3.7-0.6-2.9,0.6
		C26.6,44.6,27.9,46.3,30.8,46.3z"/>
</g>
</svg>
