<?xml version="1.0" encoding="utf-8"?>
<!-- Generator: Adobe Illustrator 16.0.0, SVG Export Plug-In . SVG Version: 6.00 Build 0)  -->
<!DOCTYPE svg PUBLIC "-//W3C//DTD SVG 1.1//EN" "http://www.w3.org/Graphics/SVG/1.1/DTD/svg11.dtd">
<svg version="1.1" id="Layer_1" xmlns="http://www.w3.org/2000/svg" xmlns:xlink="http://www.w3.org/1999/xlink" x="0px" y="0px"
	 width="258px" height="49.225px" viewBox="0 0 258 49.225" enable-background="new 0 0 258 49.225" xml:space="preserve">
<g>
	<defs>
		<rect id="SVGID_1_" x="-3.298" width="267.333" height="60"/>
	</defs>
	<clipPath id="SVGID_2_">
		<use xlink:href="#SVGID_1_"  overflow="visible"/>
	</clipPath>
	<g clip-path="url(#SVGID_2_)">
		<defs>
			<rect id="SVGID_3_" x="-3.298" width="267.333" height="60"/>
		</defs>
		<clipPath id="SVGID_4_">
			<use xlink:href="#SVGID_3_"  overflow="visible"/>
		</clipPath>
		<path clip-path="url(#SVGID_4_)" fill="#009ACF" d="M258,49.225H0V30.411c0,0,5.902,0.809,10.851-3.866
			c5.869-5.544,8.836-5.89,13.99-5.89c5.154,0,12.333,7.07,12.333,7.07s2.078,1.974,5.065,1.974c3.248,0,6.068-3.931,6.239-4.188
			c0.171-0.256,4.53-5.214,10.086-5.214s11.102,4.756,11.283,4.958c0.322,0.36,4.53,4.444,8.205,4.444
			c3.675,0,8.035-4.957,8.035-4.957s3.675-4.445,8.889-4.445c5.214,0,9.744,4.36,9.744,4.36s4.872,5.555,8.718,5.555
			c0,0,2.564,0.086,6.325-4.53c3.761-4.615,9.237-4.53,9.237-4.53s6.934-0.993,11.619,4.958c0,0,3.193,4.359,6.667,4.359
			c0,0,2.296,0.173,5.641-4.189c2.991-3.898,6.325-5.213,10.171-5.213c3.848,0,8.462,1.88,12.31,5.555c0,0,3.417,3.249,6.356,3.249
			s7.451-4.512,9.16-6.358c1.71-1.846,10.46-8.477,21.398,2.94c0,0,3.145,3.624,5.947,3.624c2.804,0,7.452-4.717,9.435-7.247
			c1.982-2.53,10.255-6.7,18.937,2.597c0,0,3.986,4.984,11.359,4.984V49.225z"/>
		<g opacity="0.25" clip-path="url(#SVGID_4_)">
			<g>
				<defs>
					<rect id="SVGID_5_" y="19.674" width="258" height="29.551"/>
				</defs>
				<clipPath id="SVGID_6_">
					<use xlink:href="#SVGID_5_"  overflow="visible"/>
				</clipPath>
				<g clip-path="url(#SVGID_6_)">
					<defs>
						<path id="SVGID_7_" d="M258,49.225H0V30.41c0,0,5.902,0.81,10.851-3.865c5.869-5.545,8.835-5.89,13.989-5.89
							c5.154,0,12.333,7.07,12.333,7.07s2.078,1.974,5.065,1.974c3.248,0,6.069-3.932,6.24-4.188
							c0.171-0.257,4.53-5.214,10.086-5.214c5.556,0,11.102,4.756,11.282,4.957c0.323,0.36,4.531,4.445,8.206,4.445
							c3.675,0,8.034-4.957,8.034-4.957s3.676-4.445,8.89-4.445s9.744,4.359,9.744,4.359s4.872,5.556,8.718,5.556
							c0,0,2.564,0.085,6.325-4.53c3.761-4.616,9.237-4.53,9.237-4.53s6.935-0.993,11.619,4.957c0,0,3.193,4.359,6.667,4.359
							c0,0,2.295,0.174,5.641-4.188c2.991-3.899,6.325-5.214,10.172-5.214s8.462,1.881,12.308,5.556c0,0,3.418,3.249,6.356,3.249
							c2.94,0,7.452-4.512,9.161-6.358c1.709-1.846,10.46-8.477,21.398,2.94c0,0,3.145,3.623,5.948,3.623
							c2.803,0,7.451-4.717,9.434-7.247c1.983-2.529,10.255-6.699,18.938,2.598c0,0,3.985,4.983,11.358,4.983V49.225z"/>
					</defs>
					<clipPath id="SVGID_8_">
						<use xlink:href="#SVGID_7_"  overflow="visible"/>
					</clipPath>
					
						<linearGradient id="SVGID_9_" gradientUnits="userSpaceOnUse" x1="-3.2979" y1="59.998" x2="-2.2979" y2="59.998" gradientTransform="matrix(0 -28.845 -28.845 0 1859.6976 -49.5171)">
						<stop  offset="0" style="stop-color:#FFFFFF"/>
						<stop  offset="0.6916" style="stop-color:#211915"/>
						<stop  offset="1" style="stop-color:#211915"/>
					</linearGradient>
					<rect y="15.036" clip-path="url(#SVGID_8_)" fill="url(#SVGID_9_)" width="258" height="34.188"/>
				</g>
			</g>
		</g>
	</g>
</g>
</svg>
